<?xml version="1.0" standalone="no"?>
<svg class="icon" viewBox="0 0 1024 1024" version="1.1" xmlns="http://www.w3.org/2000/svg" xmlns:xlink="http://www.w3.org/1999/xlink" width="18" height="18">
  <path
    d="M100.992 64l822.016 0 0 277.44-36.352 0c0 0-69.376-169.408-151.232-184.192-81.856-14.784-138.752-4.608-138.752-4.608L595.648 859.968c0 0 22.72 47.808 60.224 51.2l83.008 0L738.88 960 285.184 960l1.152-50.048L359.04 908.8c0 0 54.592-17.088 54.592-56.896 0-39.744 1.152-693.568 1.152-693.568S324.992 145.92 278.336 157.312C231.744 168.64 149.824 236.864 137.344 336.896L100.992 338.048 100.992 64z"
    fill="currentColor"/>
</svg>
