<svg id="Layer_1" data-name="Layer 1" xmlns="http://www.w3.org/2000/svg" xmlns:xlink="http://www.w3.org/1999/xlink" viewBox="0 0 516 516" width="32" height="32"><defs><style>.cls-1{fill:url(#linear-gradient);}.cls-2{opacity:0.7;}.cls-3{fill:#ab644c;}.cls-4{fill:#4b2214;}.cls-4,.cls-7,.cls-8{opacity:0.4;}.cls-5{fill:url(#linear-gradient-2);}.cls-6,.cls-7{fill:#6f7ab0;}.cls-6,.cls-9{opacity:0.2;}.cls-8,.cls-9{fill:#6fa9b0;}.cls-10{fill:url(#linear-gradient-3);}.cls-11,.cls-16,.cls-19,.cls-21,.cls-23,.cls-25,.cls-26{opacity:0.3;}.cls-11{fill:url(#linear-gradient-4);}.cls-12{fill:#a9bfd9;}.cls-13{fill:#2e3d54;}.cls-14{fill:#4b2c45;}.cls-15{fill:url(#linear-gradient-5);}.cls-16{fill:url(#linear-gradient-6);}.cls-17{fill:url(#linear-gradient-7);}.cls-18{fill:url(#linear-gradient-8);}.cls-19{fill:url(#linear-gradient-9);}.cls-20{fill:url(#linear-gradient-10);}.cls-21{fill:url(#linear-gradient-11);}.cls-22{fill:url(#linear-gradient-12);}.cls-23{fill:url(#linear-gradient-13);}.cls-24{fill:url(#linear-gradient-14);}.cls-25,.cls-28{fill:#132236;}.cls-26{fill:url(#linear-gradient-15);}.cls-27{fill:url(#linear-gradient-16);}.cls-29{fill:#87a0bd;}.cls-30{fill:#fff;}.cls-31{fill:#fe9fb4;}</style><linearGradient id="linear-gradient" x1="329.88" y1="201.83" x2="151.21" y2="503.73" gradientUnits="userSpaceOnUse"><stop offset="0" stop-color="#633125"/><stop offset="0.09" stop-color="#663428"/><stop offset="1" stop-color="#824b3f"/></linearGradient><linearGradient id="linear-gradient-2" x1="188.19" y1="90.14" x2="338.24" y2="380.94" gradientUnits="userSpaceOnUse"><stop offset="0" stop-color="#eaeeff"/><stop offset="0.62" stop-color="#e0e5f9"/><stop offset="1" stop-color="#d7ddf3"/></linearGradient><linearGradient id="linear-gradient-3" x1="-246.72" y1="-264.41" x2="-245.57" y2="-144.79" gradientTransform="translate(283.94 377.71) rotate(25.1)" gradientUnits="userSpaceOnUse"><stop offset="0" stop-color="#616b8e"/><stop offset="0.65" stop-color="#404d68"/><stop offset="1" stop-color="#2e3d54"/></linearGradient><linearGradient id="linear-gradient-4" x1="167.89" y1="18.18" x2="167.89" y2="63.11" gradientUnits="userSpaceOnUse"><stop offset="0" stop-color="#a9bfd9"/><stop offset="1" stop-color="#a9bfd9" stop-opacity="0"/></linearGradient><linearGradient id="linear-gradient-5" x1="222.04" y1="90.18" x2="240.88" y2="167.4" gradientUnits="userSpaceOnUse"><stop offset="0" stop-color="#704760"/><stop offset="1" stop-color="#514c65"/></linearGradient><linearGradient id="linear-gradient-6" x1="193.13" y1="81.41" x2="221.09" y2="107.83" xlink:href="#linear-gradient-4"/><linearGradient id="linear-gradient-7" x1="574.02" y1="256.19" x2="592.86" y2="333.41" gradientTransform="matrix(-1, -0.03, -0.03, 1, 950.58, -184.53)" xlink:href="#linear-gradient-5"/><linearGradient id="linear-gradient-8" x1="70.62" y1="130.68" x2="149.61" y2="194.34" xlink:href="#linear-gradient-5"/><linearGradient id="linear-gradient-9" x1="73.91" y1="127.3" x2="111.55" y2="162.81" xlink:href="#linear-gradient-4"/><linearGradient id="linear-gradient-10" x1="210.82" y1="148.87" x2="289.7" y2="212.44" gradientTransform="matrix(1, 0, 0, 1, 0, 0)" xlink:href="#linear-gradient-3"/><linearGradient id="linear-gradient-11" x1="214.72" y1="146.28" x2="254.02" y2="183.36" xlink:href="#linear-gradient-4"/><linearGradient id="linear-gradient-12" x1="132.25" y1="156.03" x2="152.34" y2="249.08" gradientTransform="matrix(1, 0, 0, 1, 0, 0)" xlink:href="#linear-gradient-3"/><linearGradient id="linear-gradient-13" x1="137.68" y1="190.31" x2="177.56" y2="229.74" gradientUnits="userSpaceOnUse"><stop offset="0" stop-color="#87a0bd"/><stop offset="1" stop-color="#2e3d54"/></linearGradient><linearGradient id="linear-gradient-14" x1="309.17" y1="110.35" x2="394.15" y2="198.45" gradientTransform="translate(10.38 -31.63) rotate(4.91)" gradientUnits="userSpaceOnUse"><stop offset="0" stop-color="#616b8e"/><stop offset="1" stop-color="#2e3d54"/></linearGradient><linearGradient id="linear-gradient-15" x1="314.15" y1="108.18" x2="361.91" y2="152.78" gradientTransform="translate(10.38 -31.63) rotate(4.91)" xlink:href="#linear-gradient-13"/><linearGradient id="linear-gradient-16" x1="412.01" y1="153.17" x2="349.66" y2="137.7" gradientTransform="translate(10.38 -31.63) rotate(4.91)" gradientUnits="userSpaceOnUse"><stop offset="0.16" stop-color="#506082"/><stop offset="0.35" stop-color="#404d68"/><stop offset="1" stop-color="#2e3d54"/></linearGradient></defs><title>Artboard 7</title><path class="cls-1" d="M88.31,458.59c8.84,14.64,72.75,40.13,172.57,39,87.38-.95,155.05-27.16,166.08-40.74s33.58-136.73,49-210.45c15-71.42-161.23-27.92-222.84-23.68-53.84,3.7-221.11-13-207.2,57.6C60.12,352.32,81.62,447.51,88.31,458.59Z"/><g class="cls-2"><path class="cls-3" d="M310.72,494.31V340.53l-35.61,7.79-2.91,149q3.6-.14,7.14-.31l2.79-143,21.46-4.7V495.12Q307.19,494.75,310.72,494.31Z"/><path class="cls-3" d="M254.24,497.65l-5.46-157.12L206,339l4,156.79q3.53.3,7.15.56l-3.87-150,28.57,1L247.1,497.6Q250.64,497.65,254.24,497.65Z"/><path class="cls-3" d="M382.28,479,395.76,305.9l-47-2-8.27,185.71q3.66-.71,7.2-1.46l7.89-176.82L388,312.72,374.93,481.29C377.45,480.55,379.91,479.8,382.28,479Z"/><path class="cls-3" d="M409.51,468.43l28.06-181.66-7.05-1.09L401.75,471.91C404.54,470.74,407.12,469.58,409.51,468.43Z"/><path class="cls-3" d="M113,474.69,73.33,290.31l-7,1.57,38.45,179.06C107.28,472.19,110,473.44,113,474.69Z"/><path class="cls-3" d="M164,305.2H118.51l22,178.83c2.4.65,4.9,1.29,7.44,1.91L126.62,312.33h30.94L175.31,491.5c2.39.39,4.81.77,7.28,1.13Z"/></g><path class="cls-4" d="M452.76,360.35C460,325.63,467.51,287.46,474,256.18c-32.51-20.44-85.85-36-149.47-42.74-28.25,3.93-54.23,8.14-71.35,9.32-53.84,3.7-221.11-13-207.2,57.6,5.3,26.92,11.63,57.1,17.82,84.91,46.74,18.58,114,30.25,188.73,30.25C333.64,395.52,405.93,381.77,452.76,360.35Z"/><path class="cls-5" d="M4.68,253.62C-17.4,166.41,99.6,36.19,253.14,36.19c171,0,280,125.51,258.07,213.85-20.44,82.39-157.32,121.16-272,121.16C145.32,371.2,25.07,334.07,4.68,253.62Z"/><ellipse class="cls-6" cx="179.72" cy="260.18" rx="13.68" ry="9.73"/><ellipse class="cls-7" cx="167.14" cy="225.5" rx="37.89" ry="26.96"/><ellipse class="cls-7" cx="261.94" cy="180.14" rx="37.89" ry="26.96"/><ellipse class="cls-7" cx="355.58" cy="155.71" rx="37.89" ry="26.96"/><ellipse class="cls-7" cx="246.82" cy="120.81" rx="37.89" ry="26.96"/><ellipse class="cls-8" cx="178.19" cy="78.94" rx="37.89" ry="26.96"/><ellipse class="cls-7" cx="120.61" cy="170.25" rx="37.89" ry="26.96"/><ellipse class="cls-6" cx="311.21" cy="221.78" rx="13.68" ry="9.73"/><ellipse class="cls-6" cx="402.73" cy="193.38" rx="13.68" ry="9.73"/><ellipse class="cls-6" cx="424.3" cy="235.46" rx="13.68" ry="9.73"/><ellipse class="cls-6" cx="410.62" cy="106.59" rx="13.68" ry="9.73"/><path class="cls-9" d="M255.21,46.15c118.7,0,207.89,59,245.12,124.5C467.21,101.25,376.25,36.19,253.14,36.19,116,36.19,8,140.11,2.25,224.45,15.5,142.11,121.71,46.15,255.21,46.15Z"/><path class="cls-9" d="M490.44,152.76c-3,13-6.41,28-11.51,37.66C446.59,275.9,341,340.16,243.5,340.16,90.11,340.16,23.11,229.53,10,189.59c-8.12,22.21-10.3,44.22-5.29,64C25.06,334.07,145.32,371.2,239.18,371.2c114.71,0,251.59-38.77,272-121.16C518.71,219.79,510.86,185.19,490.44,152.76Z"/><path class="cls-9" d="M447.54,103.81c57,75.48,48.75,166.77,5.69,216.7,29.56-18.33,50.85-41.75,58-70.47C522.7,203.69,498.15,147.12,447.54,103.81Z"/><path class="cls-10" d="M195.88,48.62c-7.67-16.18-26.24-26-43.46-23.46C136.47,27.51,124,36.42,118.16,52.62a41.84,41.84,0,0,0,25.31,53.53c21.17,7.57,45.92-4.07,53.53-25.31C201.07,69.47,200.38,58.13,195.88,48.62Z"/><path class="cls-11" d="M193.56,58.83c3.74-8.1-8.2-23.28-22-28.47-9.63-3.63-24.65-4.09-28.64,3.31s1,20.82,13.48,28.11C169.36,69.37,189.81,66.94,193.56,58.83Zm-27.37-6.91c-7.41-2.31-9.87-7.63-8.59-10.12,1.17-2.29,6.81-2.27,11.84-.53,4.25,1.47,9.11,5.56,8.31,7.94C176.89,51.75,171,53.41,166.19,51.92Z"/><path class="cls-12" d="M133.74,40.51c-3.07-2.28,8.93-11.59,10.91-8.93C146.83,34.51,136.76,42.75,133.74,40.51Z"/><path class="cls-12" d="M130.73,46.58a2.6,2.6,0,1,1-2.35-3A2.73,2.73,0,0,1,130.73,46.58Z"/><path class="cls-13" d="M168,44.46c2.11.73,3.46,2.37,3,3.66s-2.52,1.75-4.63,1-3.47-2.36-3-3.66S165.83,43.74,168,44.46Z"/><path class="cls-14" d="M258,74.68s4.53-10.52.54-13.37c-3.53-2.5-11.2,6.92-11.2,6.92-2.21-5.3-6.59-9.48-9.63-8-2.86,1.36-2.24,8.91-.7,11.44-5,2.07-7.48,6-6.57,8.83,1.07,3.35,5.42,5.29,10.37,5-.47,4.5,2,10.1,5.63,10.38,6,.47,7.65-8.52,7.65-8.52s16-3.25,16.46-8.43C271.13,71.32,258,74.68,258,74.68Z"/><path class="cls-15" d="M257.23,78.65c-13.53-12.81-34.93-18.78-53.94-9.42-13.5,6.64-20.24,19.84-21.51,34.4-2.53,29,26.5,51.06,55.52,44.19,18.41-4.36,26.24-13.23,31.53-25.86C275.2,106.73,268.84,89.65,257.23,78.65Z"/><path class="cls-16" d="M226,72.19c-12.45-5-26.67,6.24-32.55,16.85-6.89,12.44-6.38,31.36,3.83,37.92,11.76,7.55,34.21-2.72,40.21-19.53C241.88,95.17,238.35,77.14,226,72.19Z"/><path class="cls-12" d="M194.74,86c-3.33-1.57,6.25-12.63,8.62-10.5C206,77.89,198,87.58,194.74,86Z"/><path class="cls-12" d="M193,92.34a2.5,2.5,0,1,1-2.79-2.44A2.63,2.63,0,0,1,193,92.34Z"/><path class="cls-14" d="M338.69,32.56s-4.23-10.66-.15-13.38c3.6-2.4,11,7.24,11,7.24,2.35-5.23,6.86-9.29,9.85-7.76,2.82,1.44,2,9,.37,11.46,4.91,2.22,7.3,6.21,6.31,9-1.17,3.32-5.57,5.14-10.51,4.65.34,4.51-2.31,10-5.93,10.22-6,.28-7.4-8.75-7.4-8.75s-16-3.71-16.2-8.9C325.67,28.82,338.69,32.56,338.69,32.56Z"/><path class="cls-17" d="M334.5,42.29c13.9-12.41,35.46-17.75,54.19-7.85,13.3,7,19.66,20.43,20.5,35,1.68,29.06-28,50.27-56.78,42.56-18.27-4.89-25.84-14-30.76-26.77C315.72,69.83,322.57,53,334.5,42.29Z"/><path class="cls-14" d="M70.9,122.9s-9.83-5.9-13.18-2.32c-2.95,3.16,5.36,12,5.36,12-5.54,1.48-10.28,5.27-9.26,8.47,1,3,8.53,3.41,11.25,2.22,1.39,5.21,4.94,8.21,7.87,7.69,3.46-.61,6-4.66,6.3-9.62,4.39,1.08,10.28-.64,11-4.19,1.25-5.85-7.43-8.71-7.43-8.71S81.78,112.11,76.69,111C69.32,109.44,70.9,122.9,70.9,122.9Z"/><path class="cls-18" d="M99,113c-24.42,2.84-42.71,29.16-39,53,3.13,20.35,21.76,35.49,46,33.26,25.61-2.34,40.25-29.27,39.45-47C144.45,132.54,127.71,109.62,99,113Z"/><path class="cls-19" d="M80.85,126.29c-13.06,9.9-20.5,30.9-12,40.73,8,9.3,28.41,6.36,39.89-4,11.68-10.52,16.87-31.16,7.75-40.22C108.19,114.61,90.87,118.68,80.85,126.29Z"/><path class="cls-12" d="M77,130.21c-3-2.19,7.31-10.13,9.22-7.57C88.32,125.47,79.91,132.37,77,130.21Z"/><path class="cls-12" d="M74.46,137a2.5,2.5,0,1,1-2.26-2.93A2.62,2.62,0,0,1,74.46,137Z"/><path class="cls-14" d="M249.17,218s4.94,10.83,9.91,9.73c4.38-1,2.48-13.43,2.48-13.43,5.61,2,11.89,1.53,12.9-1.8,1-3.15-5.3-7.94-8.32-8.51,1.88-5.28.6-9.93-2.21-11.21-3.32-1.51-7.85.48-11,4.53-3.13-3.5-9.17-5.5-11.91-2.91-4.51,4.27,1.23,11.83,1.23,11.83s-8.69,14.61-5,18.53C242.61,230.39,249.17,218,249.17,218Z"/><path class="cls-20" d="M238.59,132.39c-23.68,2.75-42.35,26.28-37.86,51.44,3.48,19.47,23.43,33.89,44.6,32.27a42.93,42.93,0,0,0,39.18-38.55c1.59-18-9.07-34.5-23.52-41.57A42,42,0,0,0,238.59,132.39Z"/><path class="cls-21" d="M223.47,144.17C209.09,153.61,201.93,176,211,186.44c8.56,9.88,29.83,7.09,41.4-4.11,9.8-9.48,15.58-27.87,6.64-37.93C250.65,135,233.53,137.57,223.47,144.17Z"/><path class="cls-12" d="M218.54,150.17c-3.06-2.28,8.93-11.59,10.91-8.93C231.64,144.17,221.57,152.41,218.54,150.17Z"/><path class="cls-12" d="M215.53,156.24a2.6,2.6,0,1,1-2.35-3A2.73,2.73,0,0,1,215.53,156.24Z"/><path class="cls-22" d="M190.36,208.56a40.52,40.52,0,0,0-15.48-28.43,48.6,48.6,0,0,0-32.64-10.27c-24.12,1.58-46.5,23.4-43.46,48.15,2.87,23.42,20.19,37.12,46.91,37.2C175,255.31,192.87,235.55,190.36,208.56Z"/><path class="cls-23" d="M169.44,185c-2.64-9.33-21.13-13.17-34.7-9-13,4-25.63,16.72-23.12,25.43,2.74,9.5,23.4,13.81,38.29,7.66C160.53,204.67,171.85,193.46,169.44,185Zm-27.08,10.53c-5.63,2.05-12.82-.17-13.31-3-.45-2.61,4.82-5.67,8.22-6.92,4.72-1.73,11.72-2.12,12.92.55C151.31,188.63,147.22,193.71,142.36,195.48Z"/><path class="cls-13" d="M138.62,188.49c2-.67,4.08-.1,4.53,1.27s-.86,3-2.91,3.7-4.08.1-4.53-1.28S136.57,189.16,138.62,188.49Z"/><path class="cls-12" d="M115.58,188.72c-2.84-2.07,8.13-10.72,10-8.3C127.58,183.11,118.37,190.77,115.58,188.72Z"/><path class="cls-12" d="M133.2,179a2.39,2.39,0,1,1-2-2.92A2.52,2.52,0,0,1,133.2,179Z"/><path class="cls-24" d="M314.21,98.71c-20.3,10.49-27.25,37.33-18,57.73,9.91,22,37.58,34.2,60.06,23.08,21.1-10.44,28-36.78,20.1-57.56C366.54,96.38,340.26,85.24,314.21,98.71Z"/><path class="cls-25" d="M316.21,174.7c-2.08-.18-4.11-.46-6.11-.82,12.89,9.92,30.72,13.26,46.12,5.64,15-7.42,22.8-22.86,23.24-38.63C372.79,169.26,341.34,176.86,316.21,174.7Z"/><path class="cls-26" d="M300.36,129.56C304,139,323,142.07,336.29,136.22c12.36-5.44,23.34-20.09,19.11-29.49-4-8.87-20.23-10.29-31.21-6.86C309.71,104.39,296.6,119.78,300.36,129.56Z"/><path class="cls-27" d="M368.31,139.45s7.35-6.67,4.21-13.54-11.06.46-11.06.46c.07-6.77-4.78-11.81-8-11.24-3.07.54-6.59,6.46-5,12.73-5.22.61-9,4.18-9.24,7.72-.34,4.17,2.78,7.89,7.31,9.23-2.15,4.94-2.1,12.16,1,13.74,5.13,2.6,10.07-7,10.07-7s7,10.88,12.35,4.11S368.31,139.45,368.31,139.45Z"/><path class="cls-28" d="M352.88,136.28c-.91.14-1.52,1.36-1.41,2.39s1,2.16,2,2,1.48-1.25,1.45-2.16C354.92,137.36,353.89,136.13,352.88,136.28Z"/><path class="cls-29" d="M345.91,145.14c-2.15,4.93-1.53,11.83,1.58,13.41A4,4,0,0,0,349,159c-6-3.71-1.48-14.67-1.48-14.67s-7.1-2.29-7.48-8.24c-.41-6.49,9-7.87,9-7.87-.93-7.18,1.07-10.34,3-12.4a11,11,0,0,0-4.12,11.55c-5.93.6-9.26,4.59-9.55,8.12C338,139.63,341.38,143.8,345.91,145.14Z"/><path class="cls-12" d="M303.63,113.55c-2.76-1.81,7.12-10.46,9-8.27C314.64,107.7,306.36,115.34,303.63,113.55Z"/><path class="cls-12" d="M319.71,103.53a2.25,2.25,0,1,1-2-2.64A2.36,2.36,0,0,1,319.71,103.53Z"/><path class="cls-12" d="M346.3,43.41a2.42,2.42,0,1,1-2.21-2.55A2.39,2.39,0,0,1,346.3,43.41Z"/><path class="cls-12" d="M330.53,58.23c-3.13-2.4,5.45-13.09,7.61-10.74S333.41,60.44,330.53,58.23Z"/><circle class="cls-30" cx="394.03" cy="189.81" r="13.25"/><circle class="cls-30" cx="401.84" cy="103.25" r="14.39"/><circle class="cls-30" cx="301.51" cy="217.38" r="14.39"/><circle class="cls-30" cx="414.49" cy="231.06" r="14.39"/><circle class="cls-30" cx="170.21" cy="255.48" r="14.39"/><polygon class="cls-6" points="327.46 282.5 357.6 274.1 365.4 278.2 368.32 256.13 379.33 240.78 362.52 237.88 338.76 219.91 327.46 282.5"/><path class="cls-31" d="M308.74,247.4c.57-2.67,11.28-6.18,20.3-8.39,1.89-9.64,6.34-21.68,7.9-22.3,1.06-.43,8.67,9.36,14.6,18.61,6.6-.83,21.23,1.41,21.61,2.8.49,1.81-6,9.32-12.48,16.72,2.25,6.37,6.1,22.24,4.73,23.36s-13.86-3.3-22.43-5.74C335.06,279.38,328.05,284.2,326,283s-1.89-10.18-.65-21.22C317.43,256,308,250.86,308.74,247.4Z"/><path class="cls-6" d="M419.05,172.9l20-13,11.87-.4-10.75-12.47,3.26-11.89S422.54,154,419.05,172.9Z"/><path class="cls-31" d="M414.12,131.19c1.64-.69,7.53,3.68,12.1,7.65,5.83-2.62,13.91-4.78,14.83-4.19.62.4-1.72,8.13-4.41,14.76,2.93,3.2,7.23,11.83,6.64,12.55-.78.94-7.21.32-13.59-.35-2.54,3.59-9.53,11.6-10.64,11.29s-3.46-8.61-5.39-14.08c-6.65-1.61-11.84-3.52-12-5s4.71-4.83,11.05-8.33C412.8,139.06,412,132.09,414.12,131.19Z"/><path class="cls-6" d="M220.67,277.45l30-14.94-6.08-8.12,6.37-11-6-2.76S224.86,260.81,220.67,277.45Z"/><path class="cls-31" d="M218.31,235.52c1.67-.6,7.29,4.13,11.6,8.37,6-2.26,14.18-3.92,15.06-3.27.6.44-2.22,8-5.31,14.47,2.73,3.37,6.5,12.24,5.86,12.92-.84.9-7.21-.11-13.54-1.18-2.75,3.43-10.23,11-11.31,10.62s-2.92-8.8-4.51-14.39c-6.54-2-11.61-4.24-11.66-5.76s5-4.53,11.54-7.63C216.5,243.3,216.14,236.29,218.31,235.52Z"/></svg>
