<svg id="Layer_1" data-name="Layer 1" xmlns="http://www.w3.org/2000/svg" xmlns:xlink="http://www.w3.org/1999/xlink" viewBox="0 0 516 516"><defs><style>.cls-1{fill:url(#linear-gradient);}.cls-2{fill:#deac87;}.cls-12,.cls-2,.cls-6{opacity:0.5;}.cls-3{fill:url(#radial-gradient);}.cls-4,.cls-5{fill:#acd6ee;}.cls-10,.cls-4{opacity:0.1;}.cls-6{fill:url(#linear-gradient-2);}.cls-7{fill:#2b446a;opacity:0.15;}.cls-8{fill:url(#linear-gradient-3);}.cls-9{fill:url(#radial-gradient-2);}.cls-10{fill:#ff8286;}.cls-11{fill:url(#linear-gradient-4);}.cls-12{fill:url(#linear-gradient-5);}.cls-13{fill:#fff;}.cls-14{fill:#b51f1b;opacity:0.25;}</style><linearGradient id="linear-gradient" x1="296.14" y1="383.3" x2="291.46" y2="197.48" gradientTransform="translate(-119.96 235.99) rotate(-16.89)" gradientUnits="userSpaceOnUse"><stop offset="0" stop-color="#fceed3"/><stop offset="0.39" stop-color="#f8e8c9"/><stop offset="1" stop-color="#edd8b2"/></linearGradient><radialGradient id="radial-gradient" cx="121.62" cy="103.89" r="223.1" gradientTransform="translate(0 2.78) scale(1 0.97)" gradientUnits="userSpaceOnUse"><stop offset="0" stop-color="#78bde3"/><stop offset="0.39" stop-color="#49a7da"/><stop offset="0.52" stop-color="#379fd6"/><stop offset="1" stop-color="#0889cd"/></radialGradient><linearGradient id="linear-gradient-2" x1="57.88" y1="41.67" x2="167.95" y2="183.51" gradientUnits="userSpaceOnUse"><stop offset="0" stop-color="#fff"/><stop offset="0.2" stop-color="#fff" stop-opacity="0.73"/><stop offset="0.42" stop-color="#fff" stop-opacity="0.48"/><stop offset="0.61" stop-color="#fff" stop-opacity="0.27"/><stop offset="0.78" stop-color="#fff" stop-opacity="0.12"/><stop offset="0.91" stop-color="#fff" stop-opacity="0.03"/><stop offset="1" stop-color="#fff" stop-opacity="0"/></linearGradient><linearGradient id="linear-gradient-3" x1="357.73" y1="509.82" x2="353.05" y2="324.01" gradientTransform="matrix(1, 0, 0, 1, 0, 0)" xlink:href="#linear-gradient"/><radialGradient id="radial-gradient-2" cx="312.51" cy="80.05" r="229.01" gradientTransform="translate(17.85 210.28) rotate(-37.9) scale(1 0.98)" gradientUnits="userSpaceOnUse"><stop offset="0" stop-color="#fd7772"/><stop offset="0.69" stop-color="#f5222c"/><stop offset="0.79" stop-color="#eb1e29"/><stop offset="0.97" stop-color="#d01322"/><stop offset="1" stop-color="#cb1121"/></radialGradient><linearGradient id="linear-gradient-4" x1="209.15" y1="-15.35" x2="447.61" y2="268.68" gradientUnits="userSpaceOnUse"><stop offset="0.01" stop-color="#fff5e6"/><stop offset="0.18" stop-color="#ffebdc"/><stop offset="0.48" stop-color="#ffcfc3"/><stop offset="0.85" stop-color="#ffa399"/><stop offset="1" stop-color="#ff9087"/></linearGradient><linearGradient id="linear-gradient-5" x1="244.86" y1="13.22" x2="354.92" y2="155.05" xlink:href="#linear-gradient-2"/></defs><title>Artboard 11</title><path class="cls-1" d="M191.57,290.24,259,512.43s14.29,6.74,22.74-7.7L206.14,266.39Z"/><path class="cls-2" d="M229.61,340.33l-23.47-73.94-14.57,23.85,17.64,58.09A135,135,0,0,1,229.61,340.33Z"/><path class="cls-3" d="M105.2,42.55C31.5,74.1-6.37,162.59,26,236.56c30.54,69.82,112.69,101.67,181.07,79.22,80.61-26.46,127.13-123.44,90.54-202.09C265,43.68,177.5,11.6,105.2,42.55Z"/><ellipse class="cls-4" cx="161.24" cy="177.01" rx="135.37" ry="134.48" transform="translate(-50.56 65.33) rotate(-19.87)"/><path class="cls-5" d="M221.13,160.64c14.44-38.43,28.78-73.43,25.84-75.2s-35.74,19.23-71.64,38.75c-35.67-27.75-65.87-56-70.92-52.61s5,42.68,13,86.26C80.66,179.66,45.38,197,46,201.27s42.87,7.38,85.4,11.72c10.68,45.88,15.54,88.1,22.52,89.27,7.54,1.25,19.15-42.05,38.24-86.46,39.55,1.43,79.62,5.36,82.54-1.66C277.69,207,250.72,186.76,221.13,160.64Z"/><path class="cls-6" d="M44.16,230.21c-29.88-33-21-116.92,35.25-160.16C140.26,23.27,238.74,49.3,250.07,85.9c11.5,37.16-65.71,89.39-87.13,103.7C133.06,209.56,67.2,255.62,44.16,230.21Z"/><path class="cls-7" d="M297.59,113.69a136.82,136.82,0,0,0-19.94-31c-2.06,24,2,117.6-43.45,153.63-37.75,48-130.39,62.62-159,59.53,38,26.3,87.81,34.42,131.9,19.95C287.66,289.32,334.18,192.34,297.59,113.69Z"/><path class="cls-8" d="M343.92,269v232.2s11.71,10.61,24-.76l-3.12-250Z"/><path class="cls-2" d="M354.61,320.7c3.72,0,7.4.14,11.06.36l-.88-70.69L343.92,269v51.73C347.45,320.57,351,320.56,354.61,320.7Z"/><path class="cls-9" d="M345.93,2.09C263.66,5,193,78,200.38,161c6.83,76.75,77.75,133.41,152.24,132.17,79.63-1.34,152.6-68.66,148.9-152.25C497.93,59.85,423.75-.64,345.93,2.09Z"/><ellipse class="cls-10" cx="348.21" cy="145.85" rx="135.37" ry="134.48" transform="translate(-28.84 127.02) rotate(-19.87)"/><path class="cls-11" d="M347.73,267.52a130,130,0,0,1-47.25-8.87c-30.11-11.81-52.94-34-64.3-62.61a117.4,117.4,0,0,1,2.5-92.8c14.14-31.09,40.44-54.72,74-66.54,28.63-10.07,55.16-7.66,72.37-3.86,9.49,2.09,19.66,4.88,28.26,9.53,2.91,1.56,6,2.68,4.64,6.85-1,3-3.6,4-6.24,2.64a4.83,4.83,0,0,1-.45-.26c-3.94-2.07-46.8-23.39-95.53-6.25-31.22,11-55.63,32.9-68.73,61.69a108.33,108.33,0,0,0-2.32,85.61c10.41,26.18,31.4,46.59,59.12,57.45,30,11.75,64.35,10.91,91.93-2.25,41.19-19.67,61.65-55.92,54.71-97-4.38-26-22.29-48.34-49.12-61.37-28-13.58-62-12.37-84.64,0-32.48,17.72-45.49,51.94-33.45,86.08,12.22,34.64,47.86,49.8,86.65,36.87,15.6-5.2,29.45-16.89,36.14-30.5,5.1-10.38,5.88-21.35,2.25-31.75A43.46,43.46,0,0,0,385,124.9a56.07,56.07,0,0,0-42.75-1.57c-21.4,8.15-28.17,25.68-25.39,38.52a27.35,27.35,0,0,0,15.45,19,27.71,27.71,0,0,0,25.11-1.28c6.14-3.41,10.54-9.25,11.48-15.24.54-3.39-.17-6.33-2-8.28-3.26-3.49-12.1-4.11-21.28.9a4.59,4.59,0,1,1-4.39-8.06c12.31-6.72,25.62-6.35,32.38.9,3.78,4.06,5.32,9.73,4.34,16-1.38,8.71-7.54,17.08-16.09,21.83a36.59,36.59,0,0,1-54-23.82c-4.37-20.24,8.41-40.4,31.1-49a65.36,65.36,0,0,1,49.88,1.82c13.61,6.34,23.33,16.92,28.1,30.61,11.21,32.11-11.08,64.09-41.68,74.29-43.13,14.38-86.91-3.82-100.67-42.84-13.58-38.47,2.44-79.26,39-99.18,25.59-14,60.76-13.27,91.79,1.8,29.54,14.34,49.28,39.16,54.16,68.09,7.66,45.33-14.7,85.25-59.8,106.78A121.19,121.19,0,0,1,347.73,267.52Z"/><path class="cls-12" d="M231.14,201.76c-29.89-32.95-21-116.92,35.25-160.16C327.24-5.18,425.72,20.85,437,57.45c11.5,37.16-65.7,89.39-87.13,103.7C320,181.1,254.18,227.16,231.14,201.76Z"/><path class="cls-13" d="M235.46,77.46c4.87,2.23-2.22,16.72-7.71,13.61C223.25,88.51,231,75.42,235.46,77.46Z"/><path class="cls-13" d="M241,71c-3.42-2.79,3.36-12,9.93-18.62s15.7-12.08,18-9.31c1.66,2-5.18,8.07-12.35,15.22C249.62,65.18,243.08,72.65,241,71Z"/><path class="cls-13" d="M45.85,110.2c4.87,2.24-2.22,16.72-7.71,13.61C33.64,121.25,41.41,108.16,45.85,110.2Z"/><path class="cls-13" d="M53.43,99.63C50,96.85,56.78,87.59,63.35,81s15.7-12.09,18-9.31c1.66,2-5.18,8.07-12.35,15.21C62,93.86,55.51,101.33,53.43,99.63Z"/><path class="cls-14" d="M501.52,141a137.29,137.29,0,0,0-18.38-62.74c-1.09,18.86-22.28,88.77-60.95,128.5-40.36,43.72-109,56.3-158.32,59.35,25.79,17.64,56.95,27.67,88.75,27.14C432.26,291.86,505.22,224.54,501.52,141Z"/></svg>