<svg xmlns="http://www.w3.org/2000/svg" xmlns:xlink="http://www.w3.org/1999/xlink" viewBox="0 0 516 516" width="32" height="32"><defs><style>.cls-1{isolation:isolate;}.cls-2{fill:url(#linear-gradient);}.cls-3{fill:url(#linear-gradient-2);}.cls-4{fill:#730010;}.cls-12,.cls-13,.cls-28,.cls-30,.cls-4{opacity:0.3;}.cls-5{fill:#e1171b;}.cls-14,.cls-26,.cls-5,.cls-8{opacity:0.7;}.cls-6{fill:#f79421;}.cls-7{fill:#eb6000;}.cls-9{fill:#f74346;}.cls-10,.cls-27,.cls-9{opacity:0.5;}.cls-10,.cls-22,.cls-23,.cls-30{fill:#fff;}.cls-11{fill:url(#linear-gradient-3);}.cls-12,.cls-14,.cls-16{fill:#132236;}.cls-13{fill:url(#linear-gradient-4);}.cls-15{fill:url(#linear-gradient-5);}.cls-17{fill:#a9bfd9;}.cls-18{fill:#87a0bd;}.cls-19{fill:url(#linear-gradient-6);}.cls-20{fill:#ffb7bc;}.cls-21{fill:url(#linear-gradient-7);}.cls-22{opacity:0.3;}.cls-24{fill:#352b3a;}.cls-25{fill:#473d53;}.cls-26,.cls-27,.cls-29{fill:#6a6387;}.cls-28{fill:#bbf5e4;}.cls-28,.cls-30{mix-blend-mode:overlay;}.cls-29{opacity:0.4;}.cls-31{fill:#97abc2;}</style><linearGradient id="linear-gradient" x1="-47.17" y1="132.81" x2="-56.25" y2="-236.2" gradientTransform="matrix(0.93, -0.38, 0.38, 0.93, 396.23, 430.34)" gradientUnits="userSpaceOnUse"><stop offset="0" stop-color="#f3cf8f"/><stop offset="0.3" stop-color="#f3c585"/><stop offset="0.8" stop-color="#f2aa6c"/><stop offset="1" stop-color="#f29d60"/></linearGradient><linearGradient id="linear-gradient-2" x1="11.81" y1="-47.97" x2="73.36" y2="8.63" gradientTransform="translate(150.26 104.96) rotate(-7.77)" gradientUnits="userSpaceOnUse"><stop offset="0" stop-color="#e1171b"/><stop offset="1" stop-color="#b82423"/></linearGradient><linearGradient id="linear-gradient-3" x1="281.95" y1="184.87" x2="365.91" y2="257.18" gradientTransform="matrix(1, 0.08, -0.08, 1, -68.05, -68.66)" gradientUnits="userSpaceOnUse"><stop offset="0" stop-color="#616b8e"/><stop offset="1" stop-color="#2e3d54"/></linearGradient><linearGradient id="linear-gradient-4" x1="292.07" y1="211.28" x2="340.02" y2="227.01" gradientTransform="matrix(1, 0.08, -0.08, 1, -68.05, -68.66)" gradientUnits="userSpaceOnUse"><stop offset="0" stop-color="#87a0bd"/><stop offset="1" stop-color="#2e3d54"/></linearGradient><linearGradient id="linear-gradient-5" x1="322.56" y1="170.25" x2="297.23" y2="217.83" gradientTransform="matrix(1, 0.08, -0.08, 1, -68.05, -68.66)" gradientUnits="userSpaceOnUse"><stop offset="0" stop-color="#506082"/><stop offset="0.41" stop-color="#404d68"/><stop offset="1" stop-color="#2e3d54"/></linearGradient><linearGradient id="linear-gradient-6" x1="269.86" y1="299.77" x2="397.63" y2="299.77" gradientTransform="translate(-36.69 -50.36) rotate(2.38)" gradientUnits="userSpaceOnUse"><stop offset="0" stop-color="#ffdedb"/><stop offset="1" stop-color="#ff9fa8"/></linearGradient><linearGradient id="linear-gradient-7" x1="291.36" y1="342.18" x2="386.04" y2="342.18" gradientTransform="translate(-36.69 -50.36) rotate(2.38)" gradientUnits="userSpaceOnUse"><stop offset="0" stop-color="#ffa1a7"/><stop offset="1" stop-color="#f2888f"/></linearGradient></defs><title>Artboard 14</title><g class="cls-1"><g id="Layer_1" data-name="Layer 1"><path class="cls-2" d="M348.06,444.73,201.67,79a67.8,67.8,0,0,1-12.29,4.74l146,364.81S364,516.05,369.16,514C375.27,511.46,348.06,444.73,348.06,444.73Z"/><path class="cls-3" d="M222.65,142.57c25-10.41,47.9-29.26,46-57-3.07-45.17-69.2-94-97.55-81.6C128,22.84,116.85,99.37,147.17,133.07,165.11,153,198.51,152.61,222.65,142.57Z"/><path class="cls-4" d="M268.66,85.56c-1.36-20-15.11-40.73-32.46-56.54a84.75,84.75,0,0,1,7,36.57c-.58,19.28-12.32,40.48-26.71,52.86a79.82,79.82,0,0,1-56.26,18.49,78,78,0,0,1-10.87-1.61c18.37,17.63,50.09,16.88,73.28,7.24C247.7,132.16,270.55,113.31,268.66,85.56Z"/><path class="cls-5" d="M168.55,5.21C136.92,21.23,123.7,69,133,105.15a22.54,22.54,0,0,0,10.57,4.6c17.58,2.56,37.13-19.53,42.32-40.9C191.13,47.17,184.27,14.94,168.55,5.21Z"/><g id="_Group_" data-name="&lt;Group&gt;"><path id="_Path_" data-name="&lt;Path&gt;" class="cls-6" d="M180.25,20.44c4.21-.32,3.62,9.62,1.32,9.94C179.62,30.64,174.66,20.86,180.25,20.44Z"/></g><g id="_Group_2" data-name="&lt;Group&gt;"><path id="_Path_2" data-name="&lt;Path&gt;" class="cls-6" d="M177.57,89.15c4.15-.86,4.55,9.66,2.46,9.84C177.65,99.19,171.79,90.35,177.57,89.15Z"/></g><g id="_Group_3" data-name="&lt;Group&gt;"><path id="_Path_3" data-name="&lt;Path&gt;" class="cls-6" d="M152.22,113c3.72-1.93,7.3,7.58,5.32,8.77C155.87,122.81,147.29,115.61,152.22,113Z"/></g><g id="_Group_4" data-name="&lt;Group&gt;"><path id="_Path_4" data-name="&lt;Path&gt;" class="cls-6" d="M178.9,119.65c3.71-1.93,7.3,7.58,5.32,8.77C182.54,129.42,174,122.22,178.9,119.65Z"/></g><g id="_Group_5" data-name="&lt;Group&gt;"><path id="_Path_5" data-name="&lt;Path&gt;" class="cls-7" d="M225.63,79.9c4.13-1.58,6.06,9.66,3.78,10.51C227.49,91.14,220.93,81.71,225.63,79.9Z"/></g><g id="_Group_6" data-name="&lt;Group&gt;"><path id="_Path_6" data-name="&lt;Path&gt;" class="cls-7" d="M206,106.33c4.72-2.41,6.63,8.56,4.39,9.5S201.35,108.72,206,106.33Z"/></g><g id="_Group_7" data-name="&lt;Group&gt;"><path id="_Path_7" data-name="&lt;Path&gt;" class="cls-6" d="M196.81,40c4.12-.89,4.9,9,2.66,9.67C197.58,50.18,191.33,41.17,196.81,40Z"/></g><g id="_Group_8" data-name="&lt;Group&gt;"><path id="_Path_8" data-name="&lt;Path&gt;" class="cls-6" d="M201.52,75.21c4.36-1.47,5.51,8.25,3.57,8.85C202.79,84.77,196.68,76.83,201.52,75.21Z"/></g><g id="_Group_9" data-name="&lt;Group&gt;"><path id="_Path_9" data-name="&lt;Path&gt;" class="cls-7" d="M218.31,55.63c4.36-1.46,5.51,8.25,3.57,8.85C219.58,65.2,213.47,57.25,218.31,55.63Z"/></g><g id="_Group_10" data-name="&lt;Group&gt;" class="cls-8"><path id="_Path_10" data-name="&lt;Path&gt;" class="cls-7" d="M252.15,71.09c4.6,0,2.69,9.55.66,9.52C250.4,80.58,247.05,71.13,252.15,71.09Z"/></g><g id="_Group_11" data-name="&lt;Group&gt;" class="cls-8"><path id="_Path_11" data-name="&lt;Path&gt;" class="cls-7" d="M234.22,108.38c4.35-1.51,5.6,8.2,3.66,8.82C235.59,117.93,229.4,110.05,234.22,108.38Z"/></g><g id="_Group_12" data-name="&lt;Group&gt;"><path id="_Path_12" data-name="&lt;Path&gt;" class="cls-7" d="M219.13,29.73c4.23-1.79,6.12,7.81,4.23,8.56C221.12,39.17,214.42,31.71,219.13,29.73Z"/></g><g id="_Group_13" data-name="&lt;Group&gt;"><path id="_Path_13" data-name="&lt;Path&gt;" class="cls-6" d="M178.52,57c4.41-1.31,5.22,8.44,3.25,9C179.45,66.58,173.62,58.42,178.52,57Z"/></g><path class="cls-9" d="M144.87,102.21c-8.24-1.93-11.25-26.79-6.08-46.29,4.43-16.73,16.47-35.5,24.41-33.74C171,23.89,173.83,45,171.28,61,167.88,82.32,153.3,104.18,144.87,102.21Z"/><path id="_Path_14" data-name="&lt;Path&gt;" class="cls-10" d="M150.59,43.58c-1.9-1.26-.86-6.09.55-9s4.42-6.51,6.46-5.86c2.19.71,3.23,6.47,1,10.43C156.72,42.47,152.43,44.8,150.59,43.58Z"/><g id="_Group_14" data-name="&lt;Group&gt;"><path id="_Path_15" data-name="&lt;Path&gt;" class="cls-6" d="M146.66,78.52c4.72-1.33,4.71,9.07,2.88,9.54C148,88.45,141.73,79.92,146.66,78.52Z"/></g><g id="_Group_15" data-name="&lt;Group&gt;"><path id="_Path_16" data-name="&lt;Path&gt;" class="cls-6" d="M157.78,54.65c4.45-2.06,6.08,8.21,4.35,9C160.67,64.25,153.14,56.81,157.78,54.65Z"/></g><path class="cls-11" d="M210.23,218.43c22.05,13.57,52.17,4.62,66.59-16.24,15.53-22.47,11.21-56.47-12.73-71.78C241.62,116,212,124.69,196.48,144.55,177.37,169,181.92,201,210.23,218.43Z"/><path class="cls-12" d="M268.6,133.7a87.36,87.36,0,0,1,4.66,31c-.6,19.72-12.6,41.4-27.32,54.05a72.78,72.78,0,0,1-8,6,53.73,53.73,0,0,0,38.9-22.49C291.32,181.21,288.51,150.19,268.6,133.7Z"/><path class="cls-13" d="M197.84,197.22c11.46,6.31,33.08-5.68,39.17-23.09,5.66-16.2-1.79-38-14.43-40.93-11.65-2.66-24.28,11.56-29.34,23C187.08,170,187,191.27,197.84,197.22Z"/><path class="cls-14" d="M251.44,151.79c-.12-7.09-11.86-7.78-11.86-7.78s3-11.09-5.06-10.66c-5.15.28-5.33,16.3-6.15,22.21,0,8.28-3.33,16.44,4.2,15.54,4.82-.57,6.65-5.63,6.31-9C244.91,160.44,251.55,157.57,251.44,151.79Z"/><path class="cls-15" d="M218.13,142.1s-10.77-3.23-15.6,3.83,6.92,10.47,6.92,10.47c-6.62,3.88-9.35,11.08-6.22,14.36,2.44,2.55,10.12,2.62,15.29-2.57,3.65,4.71,9.3,6.24,12.89,4.46,4.25-2.12,6-7.32,4.69-12.5,6.05-.8,13-5.07,12.74-9-.47-6.5-12.68-5.68-12.68-5.68s6.47-13.16-3.23-14.4S218.13,142.1,218.13,142.1Z"/><path class="cls-16" d="M224,156.73c.66.81,2.21.69,3.13,0s1.5-2.27.79-3.16a2.38,2.38,0,0,0-3-.14C223.88,154.13,223.3,155.84,224,156.73Z"/><path class="cls-17" d="M191.53,164.54c-3.28-.23,1.1-12.56,3.77-11.55C198.25,154.1,194.77,164.76,191.53,164.54Z"/><path class="cls-17" d="M192.17,170.35a2.24,2.24,0,1,1-3.12-1.12A2.36,2.36,0,0,1,192.17,170.35Z"/><path class="cls-18" d="M203.19,168.53c-1-3.74,2.13-7.89,9.35-12,0,0-9.24-2.41-9.58-7.71-.21-3.42,2.55-6.49,7.53-7.36-2.4,0-7.1,1.52-8.5,4.26-3.87,7.63,6.93,10.88,6.93,10.88-7.31,4-9,11-5.89,14.26a4.42,4.42,0,0,0,3.05,1.31A6.29,6.29,0,0,1,203.19,168.53Z"/><path class="cls-19" d="M239.79,322.51c-3.55-7.57-31-77-30.39-82.35s11.73-20.91,38.78-32c31.48-12.89,52.29-6.21,54.43-2.56s32.45,78.65,32.65,82.72C335.81,299.18,243.33,330.07,239.79,322.51Z"/><path class="cls-20" d="M302.61,205.61c-1.45-2.48-11.51-6.34-27.65-4.55,14.09,33.39,28.17,66.87,40.07,101.09,11.94-5.36,20.4-10.52,20.23-13.82C335.06,284.26,304.75,209.26,302.61,205.61Z"/><path class="cls-21" d="M239.79,323.32c3.06,8.74,30.5,8.92,51.32,1.92,24.9-8.38,47.85-29.55,44.08-38.59-3.62-8.67-31.8-6.29-51.83.85C260.52,295.63,236.56,314.1,239.79,323.32Z"/><path class="cls-22" d="M276.53,282.44c28.67-10.89,18-56.88,9.55-81.77-9.38-.46-22.33,1.12-37.9,7.5-17.1,7-27.83,15.79-33.57,22.66C220.28,247.33,240.43,296.14,276.53,282.44Z"/><g class="cls-8"><path class="cls-23" d="M221,245.92l3.73,9.52c1,2.61,3.44,4.45,6.35,3.66,2.48-.66,4.69-3.73,3.67-6.36L231,243.23c-1-2.61-3.43-4.45-6.35-3.67-2.48.67-4.69,3.74-3.67,6.36Z"/></g><g class="cls-8"><path class="cls-23" d="M231,272.7l.74,3a5.19,5.19,0,0,0,10-2.7l-.74-3a5.23,5.23,0,0,0-6.36-3.66A5.29,5.29,0,0,0,231,272.7Z"/></g><path class="cls-24" d="M373.48,358.71c20,5,15.31,42.79-9.69,38L353,379.53l10.57-19.22Z"/><path class="cls-24" d="M356.4,382c20.84,5.82,14.51,36.91-5,39.59A19,19,0,0,1,337,418.17l-2.38-28.31Z"/><path class="cls-24" d="M338.62,404.28c2.15,4.05,4.75,8.65,5.16,13.3,1.67,18.85-30.43,23.3-33.76,6.22l7.39-24.12Z"/><path class="cls-24" d="M342.5,383.26c2.75,4.74,5.39,9.74,5.59,15.32.85,22.66-22.67,22.18-35.52,10.64L309.83,389l14.56-12.55Z"/><path class="cls-25" d="M265.14,409.77c-8.09,0-20.64-5.94-24.49-11.19-6-8.18-4.32-21.92,5.6-27.27l27.32-1.42Z"/><path class="cls-25" d="M343.86,314.11c3.87-19-20.77-30.37-35-18.8l2.85,27Z"/><path class="cls-24" d="M311.66,398.29c3.37,4.65,7.17,9.86,8.12,15.66,1.61,9.81-5.61,18.33-15.18,20.07-11.21,2-18.09-6.31-22.93-15.2l12.26-22.42Z"/><path class="cls-25" d="M318.3,312.88c-.19-4.3-.35-9.18-2.34-13.07-9-17.67-39-9.6-35.94,10.81l16.92,19.62Z"/><path class="cls-24" d="M369.58,348.6c12.49-13.89-.55-41.29-19.86-29.06l-4.14,25.69Z"/><path class="cls-24" d="M360.28,369.61a17.87,17.87,0,0,0,14.8-2.77c13.35-10.07,3-30.67-12.66-27.92-8.78,1.54-16,10.33-14.07,19.37C349.64,364.31,354.58,368.25,360.28,369.61Z"/><path class="cls-25" d="M348.9,345.17c4.87-3.59,7.64-7.77,8.39-13.8,2.63-21.48-22.82-32.81-36.21-14.77l-2.94,28.78Z"/><path class="cls-24" d="M295.15,400.45c2.49,5.76,1,12.78-2.61,17.9-7.2,10.16-23.47,9.67-31.55.7-9.68-10.74-5.78-26.5,5.61-30.66l23.67-3.87Z"/><path class="cls-25" d="M263.07,321.44c-14.66-7.21-29.23,12.35-24.16,25.78,1.45,3.8,4.51,6.42,8,8.4l18.88,3.32,6.47-23.43Z"/><path class="cls-25" d="M350.23,367.37c4.24-2.91,7.28-6.4,8.4-11.49,5.15-23.41-18.31-23.86-31.53-12.23l-4.75,25.88Z"/><path class="cls-25" d="M260,348c-7.83-6.12-22.36-3.63-26.81,9-3.23,9.18,1.78,19.72,10,23.85,4.63,2.34,15.5,1.84,19.47-5.46Z"/><path class="cls-25" d="M300.37,321.9c-.09-18.6-25.12-21.92-35.86-10.16-9,9.93-4.74,23.76,5.19,29.77l24.94,1.82Z"/><path class="cls-24" d="M327.9,375.86c.73,6.63,6.47,13,13.83,15.6,13.69,4.85,26.12-11.14,20.94-23.94C355.76,350.43,325.92,357.78,327.9,375.86Z"/><path class="cls-25" d="M322.35,336.31c2.91-4.89,5.39-10.41,5.16-16.22-.43-11.08-10.53-16.46-20.85-14.5-10.82,2.08-14.11,11.88-15,21.69l13.7,14.31Z"/><path class="cls-25" d="M268.45,370a24.26,24.26,0,0,1-10.76-6.86c-11.68-13.68,5.51-33.56,21-26.12l13.64,18.46Z"/><path class="cls-25" d="M323.92,359.79c6-.5,11-6.85,12-11,5-20.17-25.3-31.89-34.24-13.85l-1,20.34Z"/><path class="cls-25" d="M319.9,384.54c.3,4.52.62,9.44-1.26,13.69-3.83,8.69-11.45,11-20.55,10.53-11-.58-19.49-11.57-15.28-20.49L294.46,371Z"/><path class="cls-25" d="M305.44,381.19c6.17,8.93,22,12.38,29.52,3.2,6.39-7.82,7.82-21.52-3.06-28-5.54-3.29-13.77-2.74-19.34.1Z"/><path class="cls-25" d="M304.18,352.76c5.66-4.57,7.34-11.54,4.64-17.59-5.3-12-19.73-13.23-28-6.76-13.18,10.3-6.27,25.56,5.54,27.15Z"/><path class="cls-25" d="M291.68,378.76c0,5.81-3.67,11.11-9.11,14.05-10.08,5.42-24.92-2.81-27.31-12.77-5-20.93,18.11-26.79,26.46-18.51Z"/><path class="cls-25" d="M308.5,348.69c-16.78-7.67-39.62,7.55-27.58,26.07,9.51,14.68,33.4,12.39,36.9-5.58C319.52,360.52,316,353.15,308.5,348.69Z"/><path class="cls-26" d="M294.88,327.1c-6.8-4.35-22,6.32-15.09,15.46,6.25,8.28,24.1-5.36,16.85-13.92A7.47,7.47,0,0,0,294.88,327.1Z"/><path class="cls-27" d="M315,345c4.76,6,14.62,3.69,15.33-4.27.62-6.86-7-12.15-13.35-11.19C309.86,330.62,311.6,340.68,315,345Z"/><path class="cls-26" d="M317.93,315.18c1-3.27-1.16-6.24-3.78-7.51-7.41-3.61-19.8,4.43-14,11.58C304.23,324.37,315.92,321.64,317.93,315.18Z"/><path class="cls-27" d="M331.85,319.44c-.19,12,19.14,14.82,18,2.26C349,312.17,332.06,306.71,331.85,319.44Z"/><path class="cls-27" d="M342.84,344.81c-.77,9.44,13,12.38,12.8,2.46C355.52,339.75,343.66,334.82,342.84,344.81Z"/><path class="cls-28" d="M327.08,364.05c-12-2.25-17.62,15.64-4.85,15.62C331.92,379.65,336.7,365.86,327.08,364.05Z"/><path class="cls-27" d="M353.52,373.5c-10.59-2-15.59,13.84-4.29,13.82C357.8,387.3,362,375.1,353.52,373.5Z"/><path class="cls-26" d="M335.44,303.55c2.52-8-15.8-15.32-17.27-4.09C317.18,307.05,333,311.23,335.44,303.55Z"/><path class="cls-29" d="M328.2,395.14c-4.19,2.05-6.38,6.43-4.82,9.63s6.37,4.16,10.56,2.11,6.39-6.43,4.83-9.63S332.4,393.09,328.2,395.14Z"/><path class="cls-27" d="M250.75,363c-.66-4.78-4.56-8.31-8.58-7.76s-6.83,5-6.17,9.78,4.55,8.31,8.57,7.76S251.4,367.79,250.75,363Z"/><path class="cls-29" d="M299.33,379.57c-5.25,1-8.87,5.9-7.95,10.79s6.08,8.16,11.33,7.18,8.86-5.9,7.94-10.8S304.58,378.58,299.33,379.57Z"/><path class="cls-29" d="M352.25,399.88c-2.21,2.93-2.05,6.89.36,8.7s6.26.89,8.46-2.05,2.05-6.89-.35-8.7S354.46,397,352.25,399.88Z"/><path class="cls-29" d="M261.51,404.6c1.7,4.51,9.18,6.78,12.45,3s-.11-8.58-4.91-9.81c-5.86-1.5-9.14,3.89-7,7.77C261.89,405.23,261.71,404.91,261.51,404.6Z"/><path class="cls-27" d="M237.17,387.54a18.74,18.74,0,0,0,3.48,11c1.58,2.16,4.64,4.42,8.24,6.35,2.38-2.84,3.41-6.74,1.78-11.57C248.45,386.74,242.66,385.69,237.17,387.54Z"/><path class="cls-29" d="M381.13,375.58a5.45,5.45,0,0,0-2.91-3.88c-8.12-4.05-11.79,13.1-3.68,13.45C379.11,385.34,382,379.79,381.13,375.58Z"/><path class="cls-27" d="M367.11,338.79a15.69,15.69,0,0,0-2.15,4.36c-1.79,6.21,1.29,12.33,7.7,13.65a12.06,12.06,0,0,0,8.55-1.84C381.21,347.31,375.36,339.79,367.11,338.79Z"/><path class="cls-27" d="M361,316.61a13.49,13.49,0,0,0,.43,9.92c2.32,5.23,8.09,8.82,12.92,6.28C373.45,324.83,368.35,317.64,361,316.61Z"/><path class="cls-26" d="M300.19,354c-4.7-6.77-18.6-.84-18.26,7.14C282.6,376.64,309.12,366.84,300.19,354Z"/><path class="cls-27" d="M265.26,361.92c-6.17,1.45-10.1,8.13-7.06,15.4,2.95,7.05,12.47,5.74,15.73-.17S273.17,360.05,265.26,361.92Z"/><path class="cls-26" d="M293.42,294c-4.06,1.36-6.72,4.66-5.85,7.27s5,3.65,9,2.3,6.71-4.66,5.84-7.27S297.47,292.6,293.42,294Z"/><path class="cls-26" d="M270.79,312.54c-4.91,2.53-7.61,7.36-5.93,10.61S272,327,277,324.48s7.61-7.37,5.93-10.62S275.7,310,270.79,312.54Z"/><path class="cls-26" d="M271.19,340.19l-.08,0c-4.33-2.31-8.14-1.6-11.16,1.9-4.6,4.54-5.49,13.3,2.64,14.89S279.26,344.7,271.19,340.19Z"/><path class="cls-30" d="M255.76,323.39h-.07a7,7,0,0,0-5.23,2.44,4.52,4.52,0,0,0-.11,6,5.39,5.39,0,0,0,5,1.34,6.36,6.36,0,0,0,4.93-4.72v-.06A4.32,4.32,0,0,0,255.76,323.39Z"/><path class="cls-28" d="M328.27,354.88c10.66-6.51,9.08-24.81-5.42-27.85,3.06-7.56.51-17.14-5.4-22.77-3.15-3-13.1-6.88-22.27,5.74a22.29,22.29,0,0,0-18.77-.69c-5,2.05-12,7.83-10.34,18.53-9.21-1.92-15.76,5.41-16.91,11.33-1,5.28.5,12.23,4.62,14.17-5.71,1.15-13.31,9.36-10.2,16.71s11,9.63,16.88,8c1.08,12.69,16.73,16.64,24.11,7.82-.34,4.54,1,10.63,3.85,13.7,7.61,8.2,23.27,3.61,26.83-4.08,2.19-4.71.73-9.7-.81-14.41,6.46,4.17,15.17,2.62,18.95-2.41C337.87,372.68,337.47,360.3,328.27,354.88Z"/><path class="cls-31" d="M301.61,307.2c-6.19-.47-6.92,9.16-.72,9.62S307.82,307.67,301.61,307.2Z"/><path class="cls-31" d="M280.59,329.69c-6.19-.46-6.93,9.16-.73,9.63S286.79,330.16,280.59,329.69Z"/><path class="cls-31" d="M277.12,308.2c-5.16-.39-5.77,7.63-.6,8S282.29,308.59,277.12,308.2Z"/><path class="cls-31" d="M262.07,336.9c-5.16-.38-5.77,7.64-.6,8S267.24,337.29,262.07,336.9Z"/><path class="cls-31" d="M313,327.51c-5.16-.39-5.77,7.63-.6,8S318.14,327.9,313,327.51Z"/><path class="cls-31" d="M295.79,346.71c-5.16-.39-5.77,7.63-.61,8S301,347.1,295.79,346.71Z"/></g></g></svg>
