<svg id="Layer_1" data-name="Layer 1" xmlns="http://www.w3.org/2000/svg" xmlns:xlink="http://www.w3.org/1999/xlink" viewBox="0 0 516 516"><defs><style>.cls-1{fill:url(#linear-gradient);}.cls-2{fill:url(#linear-gradient-2);}.cls-3{fill:url(#linear-gradient-3);}.cls-4{fill:url(#linear-gradient-4);}.cls-5{fill:url(#linear-gradient-5);}.cls-6{fill:#ec343b;}.cls-7{fill:url(#linear-gradient-6);}.cls-8{fill:url(#New_Gradient_Swatch_3);}.cls-10,.cls-9{fill:#ff8c91;}.cls-10,.cls-33{opacity:0.7;}.cls-11{fill:url(#linear-gradient-7);}.cls-12{fill:#ffb7bc;}.cls-13{fill:url(#linear-gradient-8);}.cls-14,.cls-32,.cls-34{fill:#fff;}.cls-14,.cls-18{opacity:0.5;}.cls-15{fill:url(#linear-gradient-9);}.cls-16{fill:#6c2508;}.cls-16,.cls-26,.cls-27{opacity:0.3;}.cls-17{fill:#e1171b;opacity:0.8;}.cls-18{fill:#f74346;}.cls-19{fill:#730010;opacity:0.4;}.cls-20{fill:url(#linear-gradient-10);}.cls-21{fill:#d93e00;}.cls-22{fill:#f79421;}.cls-23{fill:#eb6000;}.cls-24{fill:url(#linear-gradient-11);}.cls-25{fill:url(#linear-gradient-12);}.cls-26,.cls-29{fill:#132236;}.cls-27{fill:url(#linear-gradient-13);}.cls-28{fill:url(#linear-gradient-14);}.cls-30{fill:#87a0bd;}.cls-31{fill:#a9bfd9;}.cls-32{opacity:0.2;}</style><linearGradient id="linear-gradient" x1="-80.72" y1="203.51" x2="-95.5" y2="7.91" gradientTransform="translate(369.66 232.89) rotate(-22.75)" gradientUnits="userSpaceOnUse"><stop offset="0" stop-color="#f3cf8f"/><stop offset="0.3" stop-color="#f3c585"/><stop offset="0.8" stop-color="#f2aa6c"/><stop offset="1" stop-color="#f29d60"/></linearGradient><linearGradient id="linear-gradient-2" x1="-490.34" y1="971.38" x2="-462.37" y2="1006.84" gradientTransform="translate(773.16 -884.87) rotate(7.99)" gradientUnits="userSpaceOnUse"><stop offset="0" stop-color="#68b728"/><stop offset="0.38" stop-color="#5d991d"/><stop offset="0.76" stop-color="#558214"/><stop offset="1" stop-color="#527a11"/></linearGradient><linearGradient id="linear-gradient-3" x1="-483.76" y1="962.36" x2="-454.5" y2="999.44" xlink:href="#linear-gradient-2"/><linearGradient id="linear-gradient-4" x1="-465.38" y1="991.76" x2="-432" y2="1031.31" xlink:href="#linear-gradient-2"/><linearGradient id="linear-gradient-5" x1="-480.29" y1="1009.04" x2="-470.94" y2="1020.11" xlink:href="#linear-gradient-2"/><linearGradient id="linear-gradient-6" x1="220.07" y1="118.28" x2="237.84" y2="159.95" gradientTransform="translate(-2.2 -2.1) rotate(0.15)" gradientUnits="userSpaceOnUse"><stop offset="0" stop-color="#d6001d"/><stop offset="0.6" stop-color="#c0001a"/><stop offset="1" stop-color="#b80019"/></linearGradient><linearGradient id="New_Gradient_Swatch_3" x1="220.06" y1="108.18" x2="272" y2="190.32" gradientTransform="translate(-2.2 -2.1) rotate(0.15)" gradientUnits="userSpaceOnUse"><stop offset="0" stop-color="#b80019"/><stop offset="0.22" stop-color="#ab0017"/><stop offset="0.7" stop-color="#940014"/><stop offset="1" stop-color="#8c0013"/></linearGradient><linearGradient id="linear-gradient-7" x1="186.08" y1="189.54" x2="296.68" y2="193.6" gradientTransform="translate(-2.2 -2.1) rotate(0.15)" gradientUnits="userSpaceOnUse"><stop offset="0" stop-color="#ffdedb"/><stop offset="1" stop-color="#ffb7bc"/></linearGradient><linearGradient id="linear-gradient-8" x1="220.84" y1="231.23" x2="311.64" y2="231.23" gradientTransform="translate(-2.2 -2.1) rotate(0.15)" gradientUnits="userSpaceOnUse"><stop offset="0" stop-color="#ffa1a7"/><stop offset="1" stop-color="#f2888f"/></linearGradient><linearGradient id="linear-gradient-9" x1="388.69" y1="269.22" x2="419.48" y2="351.6" gradientTransform="translate(-78.72 -35.44) rotate(4.91)" gradientUnits="userSpaceOnUse"><stop offset="0" stop-color="#e1171b"/><stop offset="1" stop-color="#b82423"/></linearGradient><linearGradient id="linear-gradient-10" x1="597.65" y1="187.79" x2="569.49" y2="206.77" gradientTransform="matrix(0.63, 0.78, -0.78, 0.63, 118.75, -342.34)" gradientUnits="userSpaceOnUse"><stop offset="0" stop-color="#598f02"/><stop offset="1" stop-color="#74ba03"/></linearGradient><linearGradient id="linear-gradient-11" x1="591.91" y1="189.38" x2="596.28" y2="146.04" xlink:href="#linear-gradient-10"/><linearGradient id="linear-gradient-12" x1="408.99" y1="354.28" x2="505.72" y2="454.56" gradientTransform="translate(-78.72 -35.44) rotate(4.91)" gradientUnits="userSpaceOnUse"><stop offset="0" stop-color="#616b8e"/><stop offset="1" stop-color="#2e3d54"/></linearGradient><linearGradient id="linear-gradient-13" x1="414.66" y1="351.81" x2="469.02" y2="402.57" gradientTransform="translate(-78.72 -35.44) rotate(4.91)" gradientUnits="userSpaceOnUse"><stop offset="0" stop-color="#87a0bd"/><stop offset="1" stop-color="#2e3d54"/></linearGradient><linearGradient id="linear-gradient-14" x1="526.05" y1="403.01" x2="455.08" y2="385.41" gradientTransform="translate(-78.72 -35.44) rotate(4.91)" gradientUnits="userSpaceOnUse"><stop offset="0.16" stop-color="#506082"/><stop offset="0.35" stop-color="#404d68"/><stop offset="1" stop-color="#2e3d54"/></linearGradient></defs><title>Artboard 15</title><path class="cls-1" d="M362.49,442.83,221.55,106.76a52.08,52.08,0,0,1-11.67,2.82c-.59.08-1.2.13-1.8.19l141.34,337.1S379.66,516.17,385,514C391.22,511.32,362.49,442.83,362.49,442.83Z"/><path class="cls-2" d="M155.8,2c-2,1.73-3.9,3.46-5.87,5.18,8.92,11.39,24.24,34.25,25.35,58.18,0,0-1,5.84,12.67-1.11C188,64.25,182.57,31.33,155.8,2Z"/><path class="cls-3" d="M174.8,52.17s8.48-17.29,3.84-37.61c0,0,21.63,17.08,18.9,32.64C193.76,68.68,174.8,52.17,174.8,52.17Z"/><path class="cls-4" d="M163.17,69.51S133,76.81,121.4,55.75c0,0,20.39,2.85,28.4,1,0,0-16.38-8-6.25-33.58,0,0,6.87,12.67,20.36,14,14.9,1.52,13.19,12.55,13.19,12.55s22.64-8.48,8-45.88c0,0,20.91,6.68,21,24.33,0,0,9.53-10.9,27.39-9.42,0,0-20.15,24.12-15.52,40.25C224.09,80.39,163.17,69.51,163.17,69.51Z"/><path class="cls-5" d="M172.41,46.77s-6.71,0-9.23,5.72c0,0-12.24,4.78-20.65-3.65a18.26,18.26,0,0,0,7.27,7.95s13.36-4.14,17.54,1.59Z"/><path class="cls-6" d="M276.2,114.45a15.86,15.86,0,0,0,4.31-13.76,18.68,18.68,0,0,0-9-12.64A21,21,0,0,0,272,70.31,20.05,20.05,0,0,0,258.49,59.2c.46-5.43-1.16-10.78-6.25-14.22a12.84,12.84,0,0,0-12.79-1.23c-2.12-4.75-5.88-8.37-12.22-9a16.2,16.2,0,0,0-14.33,5.84c-2.23-4.09-5.76-7.18-11.11-7.46a12.8,12.8,0,0,0-11.33,5.75,16.4,16.4,0,0,0-2.58,7.1,16,16,0,0,0-17.19,1.16,15.47,15.47,0,0,0-6.28,12.17c-5.09-.4-10.15,1.2-13.54,5.7a12.33,12.33,0,0,0-1.73,11.61c-6.42,1.74-12.07,6.25-12.85,13.1-.72,6.37,2.86,10.31,7.81,12.68-3.78,3.51-6.34,8.24-5.6,13.32.92,6.27,6.31,8.69,12.16,9.2-2,5-2.52,10.4.76,14.6a11.1,11.1,0,0,0,8,4A15.7,15.7,0,0,0,164,156.74a17.14,17.14,0,0,0,12.6,5c.81,5.56,3.75,10.44,10.08,12.74a17.55,17.55,0,0,0,13.38-.44,15.36,15.36,0,0,0,.84,1.53,14.49,14.49,0,0,0,13.28,6.76c6.38-.4,10.61-3.93,13.5-8.65a15.52,15.52,0,0,0,15.68,0,16.06,16.06,0,0,0,7.49-9.33A16.65,16.65,0,0,0,267,159.42c6.26-6.65,5-14.63.74-21.09.23,0,.45.09.68.11,5.34.58,12,.85,15.65-3.86C289.8,127.19,283.2,119.53,276.2,114.45Z"/><path class="cls-7" d="M276.2,114.45a15.86,15.86,0,0,0,4.31-13.76,18.68,18.68,0,0,0-9-12.64A21,21,0,0,0,272,70.31,20.05,20.05,0,0,0,258.49,59.2c.46-5.43-1.16-10.78-6.25-14.22a12.84,12.84,0,0,0-12.79-1.23c-2.12-4.75-5.88-8.37-12.22-9a16.2,16.2,0,0,0-14.33,5.84c-2.23-4.09-5.76-7.18-11.11-7.46a12.8,12.8,0,0,0-11.33,5.75,16.4,16.4,0,0,0-2.58,7.1c-.11-.06-.22-.09-.33-.15l.38.45a13.27,13.27,0,0,1,2.46,9.5l-.06.41a13.33,13.33,0,0,1-5,8.46,6.26,6.26,0,0,1-.55.34c5.73,4.6,5.66,13.86,1,19.1a9.09,9.09,0,0,1,1.5-.74,7.12,7.12,0,1,1-2.84,12.89,13.66,13.66,0,0,1-2.76,3.79c10.1,4.28,6.64,21.92-5.8,20.17a9.81,9.81,0,0,1-1.13-.27c4.19,10.21-2.35,25-16.62,23a17.46,17.46,0,0,1-4.13-1.11,12.48,12.48,0,0,0,5.38,1.79A15.7,15.7,0,0,0,164,156.74a17.14,17.14,0,0,0,12.6,5c.81,5.56,3.75,10.44,10.08,12.74a17.55,17.55,0,0,0,13.38-.44,15.36,15.36,0,0,0,.84,1.53,14.49,14.49,0,0,0,13.28,6.76c6.38-.4,10.61-3.93,13.5-8.65a15.52,15.52,0,0,0,15.68,0,16.06,16.06,0,0,0,7.49-9.33A16.65,16.65,0,0,0,267,159.42c6.26-6.65,5-14.63.74-21.09.23,0,.45.09.68.11,5.34.58,12,.85,15.65-3.86C289.8,127.19,283.2,119.53,276.2,114.45ZM222.08,62.67c.56-.22,1.1-.49,1.66-.71a6.37,6.37,0,0,1,8.13,3.4,6.3,6.3,0,0,1-3.4,8.13c-.56.21-1.1.49-1.66.7a6.35,6.35,0,0,1-8.12-3.4A6.27,6.27,0,0,1,222.08,62.67Zm-7,21.17c.57-.22,1.1-.49,1.66-.71a6.36,6.36,0,0,1,8.13,3.4,6.3,6.3,0,0,1-3.4,8.13c-.56.21-1.09.49-1.66.7a6.36,6.36,0,0,1-8.12-3.4A6.27,6.27,0,0,1,215.05,83.84ZM193.29,51.76a7,7,0,0,1,.05-5.32A7.35,7.35,0,0,1,197,42.82l.25-.12c.81-.48,1.62-1,2.46-1.37,3.42-1.74,7.48.58,8.94,3.73a7,7,0,0,1-.05,5.32A7.31,7.31,0,0,1,204.94,54l-.25.13c-.81.47-1.62.94-2.46,1.37C198.82,57.23,194.75,54.91,193.29,51.76Zm4.49,48c1-.44,2-.8,3-1.14a7,7,0,0,1,8.94,3.74c1.49,3.21-.33,7.78-3.73,8.93a28.05,28.05,0,0,0-3,1.15c-3.48,1.61-7.44-.49-8.94-3.74C192.45,105.26,194.53,101.27,197.78,99.77Zm-17.7,53.51c-.06,0-.37.14-.66.27l0,0a5.25,5.25,0,0,0-.49.33A6.85,6.85,0,0,1,170.64,143a29.65,29.65,0,0,1,4.23-2.36c3.46-1.66,7.46.53,8.94,3.74C185.43,147.83,183.3,151.72,180.08,153.28Zm18.19-20.57-.11.06c-.31.28-.82.69-.36.18l-.16.07A7.39,7.39,0,0,1,193.8,135a6.85,6.85,0,0,1-6.26-11,18.6,18.6,0,0,1,5.52-3.89c3.45-1.67,7.46.54,8.94,3.74C203.62,127.27,201.49,131.16,198.27,132.71Zm23.17-9.25c-.5.54-1,1-1.58,1.52-2.86,2.54-7.39,1.33-9.59-1.34a6.94,6.94,0,0,1-1.31-5.08c.36-2.57,2.71-5.14,4.88-6.42s4.54-.69,6.57.54a7.48,7.48,0,0,1,1.89,1.61,6.94,6.94,0,0,1,1.31,5.08A7.65,7.65,0,0,1,221.44,123.46Zm1.62-19.3a5.59,5.59,0,0,1,2.42-4,10.83,10.83,0,0,1,6.94-1.45,6.28,6.28,0,0,1,4.8,3.68c1.31,2.85-.27,7.18-3.4,8.12a13.88,13.88,0,0,1-5.46.72C224.88,111,222.76,107.32,223.06,104.16Z"/><path class="cls-8" d="M252.24,45a12.84,12.84,0,0,0-12.79-1.23c-2.12-4.75-5.88-8.37-12.22-9a16.16,16.16,0,0,0-14,5.53,15.88,15.88,0,0,1,2.31,2.67,13.93,13.93,0,0,1,2.63,12.89,13.64,13.64,0,0,1,9.34-2.23,13.47,13.47,0,0,1,8.76,5.15,13.74,13.74,0,0,1,2.55,9.85l-.09.61a13.78,13.78,0,0,1-5.16,8.76A11.73,11.73,0,0,1,228,80.31c3.78,3,5.17,7.9,4.46,12.51.19-.1,0,1.66-.49,2.62,7.51,2.12,13.31,11.29,7,19.25a11.07,11.07,0,0,1-10.12,4.48,11.37,11.37,0,0,1-2.67,7.72A11.22,11.22,0,0,1,211.57,130a9.48,9.48,0,0,1,.38,2,12.54,12.54,0,0,1-2.57,9l-.3.39c-.19.23-.39.45-.59.67a7.42,7.42,0,0,1,2.68,1.22,6.91,6.91,0,0,1,1.13,9.62c-.28.31-.52.65-.8,1h0a7.21,7.21,0,0,1-5,3.75c.72.43,1.43.89,2.14,1.32q4.78,2.82,9.76,5.44a12.21,12.21,0,0,1-10,2.67,12,12,0,0,1-10.15-7.87,12.17,12.17,0,0,1-13.54,7.67,12.44,12.44,0,0,1-8-4.21,14.87,14.87,0,0,0,9.92,11.94,17.55,17.55,0,0,0,13.38-.44,15.36,15.36,0,0,0,.84,1.53,14.49,14.49,0,0,0,13.28,6.76c6.38-.4,10.61-3.93,13.5-8.65A15.39,15.39,0,0,0,241,174.75h0c.3-.11.6-.24.9-.37.49-.22,1-.45,1.44-.72h0a16.47,16.47,0,0,0,5.66-5.34,16.15,16.15,0,0,0,1.83-4,16.71,16.71,0,0,0,13.95-2.94,18.26,18.26,0,0,0,2.21-2,15.67,15.67,0,0,0,3.81-6.53c1.39-5-.1-10.12-3.07-14.56.23,0,.45.09.68.11l1,.1c.94.09,1.91.16,2.89.19l.51,0a20.41,20.41,0,0,0,5.65-.61l.81-.25c.41-.14.82-.31,1.22-.49a11.85,11.85,0,0,0,1.21-.66,9.76,9.76,0,0,0,2.35-2.16,9.31,9.31,0,0,0,2.14-6.92,9.59,9.59,0,0,0-.39-1.81,15.45,15.45,0,0,0-2.73-5c-.53-.67-1.1-1.32-1.7-2a38.47,38.47,0,0,0-3.85-3.45l0,0c-.42-.33-.84-.65-1.27-1a15.9,15.9,0,0,0,1.3-1.53c.06-.09.12-.19.19-.28a17.09,17.09,0,0,0,.94-1.45l.09-.18a16.14,16.14,0,0,0,.83-1.73v0a15.19,15.19,0,0,0,.95-8.55,18.68,18.68,0,0,0-9-12.64A21,21,0,0,0,272,70.31,20.05,20.05,0,0,0,258.49,59.2C259,53.77,257.33,48.42,252.24,45Zm-30.88-.92c-.22-2.87,2.66-5.32,5.38-5.41,3.92-.12,8.36,5.56,5.15,8.91-1,1.08-3.26,1.16-5.41.6C223.93,47.5,221.51,45.93,221.36,44.06Zm35.39,79.17a4.49,4.49,0,0,1-2.9,1.71,4.74,4.74,0,0,1-1.13,0c-3.84-.21-8.25-4.15-8.51-8.16a5.31,5.31,0,0,1,.39-2.38c2.4-5.84,13.1-.31,13.26,5.56A4.93,4.93,0,0,1,256.75,123.23Zm17.6-4.42a7.82,7.82,0,0,1,.5,2.29,6.46,6.46,0,0,1-.61,3.35,5.45,5.45,0,0,1-.61,1,5,5,0,0,1-.84.82,5.76,5.76,0,0,1-1.08.66,5.9,5.9,0,0,1-1.19.39c-3.09.63-5.58-2-6.28-5.09a7.63,7.63,0,0,1-.18-1.15,6,6,0,0,1,1.23-4.33,5.55,5.55,0,0,1,2-1.5,4.92,4.92,0,0,1,1.78-.45,4.66,4.66,0,0,1,.92,0,4.6,4.6,0,0,1,1.66.56,5.19,5.19,0,0,1,.86.64,6.69,6.69,0,0,1,1.38,1.76A7.8,7.8,0,0,1,274.35,118.81Zm-2-19.53a6.74,6.74,0,0,1,1.52,4.3,6,6,0,0,1-.07.61c0,.09,0,.19,0,.29a4.74,4.74,0,0,1-.15.57l-.09.28a6.78,6.78,0,0,1-.94,1.73l-.21.27c-.12.15-.25.29-.38.43s-.19.19-.29.29-.25.25-.39.37-.4.33-.6.48l-.46.32-.51.31-.4.22c-.19.1-.38.2-.58.29l-.35.16c-.32.13-.63.25-1,.35l-.17,0c-.28.08-.57.16-.86.22l-.33.06c-.25.05-.5.08-.75.11s-.21,0-.32,0a9,9,0,0,1-1,0,10.52,10.52,0,0,1-1.92-.25c-.31-.08-.62-.17-.93-.28a7.74,7.74,0,0,1-3.83-2.76h0a9.86,9.86,0,0,1-.53-.85c-.05-.09-.08-.18-.13-.28s-.18-.38-.25-.57-.07-.21-.1-.31a3.79,3.79,0,0,1-.14-.53l-.06-.3a5.54,5.54,0,0,1-.05-.56c0-.08,0-.17,0-.24a5.16,5.16,0,0,1,.05-.79h0a4.7,4.7,0,0,1,.18-.74c0-.07,0-.14.07-.21s.14-.35.22-.52a2.4,2.4,0,0,1,.11-.23c.09-.16.18-.33.29-.49l.12-.19a5.56,5.56,0,0,1,.42-.54.39.39,0,0,1,.08-.1,8.2,8.2,0,0,1,1.28-1.21L259,99l.67-.46.11-.08c.23-.14.47-.28.72-.41l.08,0a13.47,13.47,0,0,1,2.71-1C266.63,96.1,270.36,96.61,272.37,99.28Zm-9.12-31.22c.86,4.64-3.77,8.12-8.66,9-3.82.7-7.81-.18-9.46-3.32-2.25-4.24,2.65-8.91,6.36-10.09S262.35,63.19,263.25,68.06Zm-14.84-8.17a5.6,5.6,0,0,1-6.45-2.3c-2.5-3.45-2.41-9.27,2.41-10.55a7,7,0,0,1,6.51,1.85A6.51,6.51,0,0,1,248.41,59.89Z"/><path class="cls-9" d="M181.8,73.8l0-.06A5.66,5.66,0,0,0,178.41,70a6.29,6.29,0,0,0-8,3,7.12,7.12,0,0,0-.81,2.22c-.64,2.81.56,6.22,3.48,7.24a6.73,6.73,0,0,0,7.79-2A6.82,6.82,0,0,0,181.8,73.8Z"/><path class="cls-9" d="M157.62,87.47c-.74-2.37-2.91-3.49-5.13-4a6,6,0,0,0-5.71,2.29c-.14.21-.27.42-.39.64a5.27,5.27,0,0,0-.92,1.42,6.31,6.31,0,0,0-.05,4.81c1.27,2.74,5,5,8.07,3.37l.76-.43a6.61,6.61,0,0,0,3.33-3.26A7,7,0,0,0,157.62,87.47Z"/><path class="cls-9" d="M173.86,90.89a6.28,6.28,0,0,0-8.66-1.22l-1.38,1.07c-2.56,2-3.35,6.06-1.22,8.66a6.29,6.29,0,0,0,8.66,1.21l1.39-1.07C175.21,97.57,176,93.48,173.86,90.89Z"/><path class="cls-9" d="M160.73,64.59a4.94,4.94,0,0,0-6.22,2.92l-.16.45a4.85,4.85,0,1,0,9.13,3.3l.17-.46A4.9,4.9,0,0,0,160.73,64.59Z"/><path class="cls-10" d="M200.71,63.42a6,6,0,0,0-7.6,3.57l-.2.56a5.93,5.93,0,1,0,11.16,4l.21-.55A6,6,0,0,0,200.71,63.42Z"/><path class="cls-10" d="M177.63,112.19a6,6,0,0,0-7.59,3.57l-.2.56a5.93,5.93,0,1,0,11.16,4l.2-.56A6,6,0,0,0,177.63,112.19Z"/><path class="cls-9" d="M156.86,107.73a5,5,0,0,0-6.22,2.92l-.16.46a4.85,4.85,0,1,0,9.13,3.29l.17-.45A4.92,4.92,0,0,0,156.86,107.73Z"/><path class="cls-11" d="M273.07,131.3c7.91,3.39,34.76,71.92,34.95,77.47.25,7.68-17.24,25.82-42.08,35.7-25.7,10.22-45.56,7.45-49.13,2.11-2.42-3.62-27.65-71.22-27.55-75.42C189.87,144.46,254.3,123.26,273.07,131.3Z"/><path class="cls-12" d="M273.07,131.3c-4.43-1.9-11.41-2.17-19.49-1.12,7.83,15.95,33,82.84,37.54,100,10.63-8.2,17.05-16.74,16.9-21.41C307.83,203.22,281,134.69,273.07,131.3Z"/><path class="cls-13" d="M218.34,248.62c3.26,8.26,29.56,7.41,49.26-.08,23.55-8.95,44.75-30.09,40.8-38.62-3.79-8.17-30.71-4.84-49.64,2.74C237.17,221.31,214.91,239.91,218.34,248.62Z"/><path id="_Path_" data-name="&lt;Path&gt;" class="cls-14" d="M256.83,224.59c-.38-2.09,3.93-4.78,7.06-5.89s7.88-1.69,8.8.06-2.57,6.55-7.06,7.87C261.89,227.73,257.2,226.61,256.83,224.59Z"/><ellipse class="cls-14" cx="249.38" cy="230.3" rx="2.66" ry="3.35" transform="translate(-1.4 459.07) rotate(-85.09)"/><path class="cls-15" d="M330.29,234.5c22.21,16.77,40.07,41.35,31.07,68.42C346.72,347,291.68,368.4,255.24,348.34c-49.39-27.2-41.1-98.09-2.35-123.78C275.83,209.36,308.89,218.34,330.29,234.5Z"/><path class="cls-16" d="M356,302.21c-23.21,19.54-56.09,30-86.31,27.37a113.66,113.66,0,0,1-43-12.58,64.06,64.06,0,0,0,28.59,31.34c36.44,20.06,91.48-1.34,106.12-45.42a46.18,46.18,0,0,0,1.73-6.93C360.83,298.15,358.47,300.24,356,302.21Z"/><path class="cls-17" d="M287.74,294c28.06-.5,47.19-24.58,48-42.78.26-5.95-2.2-12-6.51-17.5-21.42-15.66-53.77-24.11-76.33-9.16-9.81,6.5-17.68,16.42-23.35,28.08C233.13,272.14,256.23,294.57,287.74,294Z"/><path class="cls-18" d="M309.85,238.45c-6.83-14.86-28.28-19.3-42-10.37-10.34,6.72-16.18,20.94-11.68,32.4,6.19,15.76,30.07,21.44,44.27,11C310.09,264.43,315.15,250,309.85,238.45Z"/><path class="cls-19" d="M354.36,259.5c-6.12-9.42-14.65-17.88-24-24.94L304,238.16s-20.43,13.46,28.81,9.54C332.76,247.7,341.4,267.35,354.36,259.5Z"/><g id="_Group_" data-name="&lt;Group&gt;"><path class="cls-20" d="M341.94,244.35a81.74,81.74,0,0,0,21.22-2.8,41.78,41.78,0,0,0-24-10,5.72,5.72,0,0,1-3-3.78,22.51,22.51,0,0,0-4.27-18.56,28,28,0,0,0-5.29,14.86s-1.41-9.57-15.1-15.58c1,11.47,5.88,16.58,5.88,16.58a48.39,48.39,0,0,0-23.58,9.86c23,11.5,35.63,6,35.63,6a27.34,27.34,0,0,0,10.14,23.79C344.22,257.69,341.94,244.35,341.94,244.35Z"/></g><g id="_Group_2" data-name="&lt;Group&gt;"><path id="_Path_2" data-name="&lt;Path&gt;" class="cls-21" d="M260.12,315.14c4.35,1.48,6.43-9.15,4.1-10.11C262.24,304.22,254.35,313.17,260.12,315.14Z"/></g><g id="_Group_3" data-name="&lt;Group&gt;"><path id="_Path_3" data-name="&lt;Path&gt;" class="cls-22" d="M277.13,281.05c4.14,2,7.42-8.94,5.27-9.69C280,270.5,271.38,278.21,277.13,281.05Z"/></g><g id="_Group_4" data-name="&lt;Group&gt;"><path id="_Path_4" data-name="&lt;Path&gt;" class="cls-22" d="M246.87,256c3.39,3.05,9.75-6,8-7.79C253.37,246.65,242.37,251.9,246.87,256Z"/></g><g id="_Group_5" data-name="&lt;Group&gt;"><path id="_Path_5" data-name="&lt;Path&gt;" class="cls-22" d="M277.68,251.34c3.39,3,9.75-6,8-7.79C284.18,242,273.18,247.29,277.68,251.34Z"/></g><g id="_Group_6" data-name="&lt;Group&gt;"><path id="_Path_6" data-name="&lt;Path&gt;" class="cls-23" d="M335.55,282.53c4.38,2,7.19-10.1,4.78-11.18C338.28,270.44,330.56,280.27,335.55,282.53Z"/></g><g id="_Group_7" data-name="&lt;Group&gt;"><path id="_Path_7" data-name="&lt;Path&gt;" class="cls-22" d="M308.22,262.45c4.32,3.82,9.32-7.21,7.21-8.81S303.94,258.65,308.22,262.45Z"/></g><g id="_Group_8" data-name="&lt;Group&gt;"><path id="_Path_8" data-name="&lt;Path&gt;" class="cls-23" d="M295.5,315.12c4.1,2.07,7.62-8.18,5.43-9.45C299.09,304.59,290.05,312.38,295.5,315.12Z"/></g><g id="_Group_9" data-name="&lt;Group&gt;"><path id="_Path_9" data-name="&lt;Path&gt;" class="cls-23" d="M306.29,290.92c4.19,2.72,8-7.2,6.17-8.36C310.23,281.19,301.63,287.89,306.29,290.92Z"/></g><g id="_Group_10" data-name="&lt;Group&gt;"><path id="_Path_10" data-name="&lt;Path&gt;" class="cls-23" d="M320.46,313c4.39,2.39,7.46-7.81,5.49-8.82C323.62,302.94,315.58,310.3,320.46,313Z"/></g><g id="_Group_11" data-name="&lt;Group&gt;"><path id="_Path_11" data-name="&lt;Path&gt;" class="cls-21" d="M274,337.53c4.39,2.39,7.46-7.8,5.49-8.81C277.12,327.52,269.08,334.88,274,337.53Z"/></g><g id="_Group_12" data-name="&lt;Group&gt;"><path id="_Path_12" data-name="&lt;Path&gt;" class="cls-23" d="M344.7,303.37c4.9,1,4.77-9.69,2.58-10.06C344.71,292.87,339.24,302.31,344.7,303.37Z"/></g><g id="_Group_13" data-name="&lt;Group&gt;"><path id="_Path_13" data-name="&lt;Path&gt;" class="cls-22" d="M236.42,300.37c4.62,1.9,6.59-8.56,4.52-9.35C238.5,290.07,231.28,298.25,236.42,300.37Z"/></g><g id="_Group_14" data-name="&lt;Group&gt;"><path id="_Path_14" data-name="&lt;Path&gt;" class="cls-22" d="M253,281c4.61,2.69,7.42-8.27,5.62-9.26C257.13,270.9,248.21,278.19,253,281Z"/></g><path id="_Path_15" data-name="&lt;Path&gt;" class="cls-24" d="M333.26,228.05s-1.69,2.61-3,4.83,1.77,5,3.07,3.18,3-4.23,3-4.23,20.1-31.82,37.79-25.24c13.45,5,11.28,16.95,8.86,26.31l10.2-.78s7.11-22.74-9.95-32C370.54,193.27,352,194.37,333.26,228.05Z"/><path class="cls-25" d="M304.43,345.63c-23.11,11.94-31,42.49-20.55,65.72,11.28,25,42.78,38.93,68.36,26.26,24-11.88,31.93-41.86,22.89-65.51C364,343,334.09,330.3,304.43,345.63Z"/><path class="cls-26" d="M306.7,432.13c-2.36-.2-4.68-.53-6.95-.94,14.68,11.29,35,15.1,52.49,6.42,17.07-8.44,26-26,26.46-44C371.11,425.94,335.31,434.59,306.7,432.13Z"/><path class="cls-27" d="M288.67,380.75c4.14,10.75,25.73,14.23,40.89,7.57,14.07-6.18,26.57-22.86,21.75-33.57-4.54-10.08-23-11.71-35.53-7.81C299.31,352.09,284.38,369.62,288.67,380.75Z"/><path class="cls-28" d="M366,392s8.37-7.59,4.79-15.41-12.59.53-12.59.53c.09-7.71-5.44-13.45-9.14-12.8-3.49.62-7.5,7.35-5.71,14.49-5.95.7-10.19,4.76-10.52,8.78-.38,4.75,3.17,9,8.32,10.52-2.45,5.61-2.38,13.83,1.15,15.63,5.84,3,11.47-8,11.47-8s8,12.38,14.05,4.68S366,392,366,392Z"/><path class="cls-29" d="M348.45,388.4c-1,.15-1.74,1.55-1.61,2.71s1.18,2.46,2.31,2.31a2.38,2.38,0,0,0,1.66-2.47C350.77,389.62,349.59,388.23,348.45,388.4Z"/><path class="cls-30" d="M340.51,398.48c-2.45,5.61-1.73,13.46,1.8,15.26a4.58,4.58,0,0,0,1.74.47c-6.81-4.22-1.69-16.7-1.69-16.7s-8.09-2.6-8.52-9.38c-.47-7.38,10.2-8.95,10.2-8.95-1.06-8.18,1.22-11.77,3.42-14.12a12.54,12.54,0,0,0-4.69,13.15c-6.75.68-10.54,5.22-10.87,9.24C331.52,392.2,335.36,397,340.51,398.48Z"/><path class="cls-31" d="M293.56,360.8c-2.77-1.81,7.12-10.46,9-8.27C304.56,355,296.28,362.59,293.56,360.8Z"/><path class="cls-31" d="M309.64,350.78a2.25,2.25,0,1,1-2-2.64A2.35,2.35,0,0,1,309.64,350.78Z"/><ellipse class="cls-6" cx="194.65" cy="145.83" rx="5.18" ry="4.83" transform="translate(-44.8 188.46) rotate(-46.94)"/><path class="cls-32" d="M262.17,129.58c-20.52,0-55,12.24-67.87,28.91C197.46,172,219,221,254.78,206.12,287.12,192.72,269.58,151.17,262.17,129.58Z"/><g class="cls-33"><path class="cls-34" d="M197.58,169.47l3.87,9.8C202.51,182,205,183.83,208,183c2.55-.7,4.81-3.87,3.75-6.57l-3.87-9.79c-1.06-2.69-3.56-4.57-6.57-3.76-2.55.7-4.82,3.87-3.75,6.57Z"/></g><g class="cls-33"><path class="cls-34" d="M208,197l.77,3.13a5.35,5.35,0,1,0,10.32-2.82l-.77-3.13a5.4,5.4,0,0,0-6.57-3.75A5.46,5.46,0,0,0,208,197Z"/></g></svg>