<svg xmlns="http://www.w3.org/2000/svg" xmlns:xlink="http://www.w3.org/1999/xlink" viewBox="0 0 516 516"><defs><style>.cls-1{isolation:isolate;}.cls-2{fill:url(#linear-gradient);}.cls-3,.cls-7{opacity:0.4;}.cls-3{mix-blend-mode:overlay;}.cls-4{fill:#f3cf8f;}.cls-5{fill:#eeaf74;}.cls-28,.cls-5{opacity:0.5;}.cls-20,.cls-5,.cls-7{mix-blend-mode:multiply;}.cls-6{fill:#f79fa7;}.cls-7{fill:#f4b9bc;}.cls-8{fill:url(#linear-gradient-2);}.cls-9{fill:url(#linear-gradient-3);}.cls-10{fill:url(#linear-gradient-4);}.cls-11{fill:url(#linear-gradient-5);}.cls-12{fill:url(#linear-gradient-6);}.cls-13{fill:url(#linear-gradient-7);}.cls-14{fill:url(#linear-gradient-8);}.cls-15{fill:url(#linear-gradient-9);}.cls-16{fill:url(#linear-gradient-10);}.cls-17{fill:#fb8d96;}.cls-18{fill:url(#linear-gradient-11);}.cls-19{fill:url(#linear-gradient-12);}.cls-20{fill:#eb8381;opacity:0.3;}.cls-21{fill:url(#linear-gradient-13);}.cls-22{fill:url(#linear-gradient-14);}.cls-23{fill:url(#linear-gradient-15);}.cls-24{fill:url(#linear-gradient-16);}.cls-25{fill:url(#linear-gradient-17);}.cls-26{fill:#ffd4d4;}.cls-27,.cls-28{fill:#ffcfd0;}.cls-29{fill:#ffd9d9;opacity:0.8;}</style><linearGradient id="linear-gradient" x1="190.41" y1="413.51" x2="337.6" y2="386.25" gradientUnits="userSpaceOnUse"><stop offset="0" stop-color="#f2ad68"/><stop offset="0.28" stop-color="#eda35c"/><stop offset="1" stop-color="#e38d40"/></linearGradient><linearGradient id="linear-gradient-2" x1="494.14" y1="221.45" x2="394.08" y2="241.29" gradientUnits="userSpaceOnUse"><stop offset="0" stop-color="#ffdedb"/><stop offset="1" stop-color="#ff9fa8"/></linearGradient><linearGradient id="linear-gradient-3" x1="364.94" y1="483.39" x2="297.92" y2="307.16" xlink:href="#linear-gradient-2"/><linearGradient id="linear-gradient-4" x1="21.85" y1="365.28" x2="349.6" y2="378.36" gradientUnits="userSpaceOnUse"><stop offset="0" stop-color="#ffdedb"/><stop offset="0.7" stop-color="#ff9fa8"/><stop offset="1" stop-color="#fb8d96"/></linearGradient><linearGradient id="linear-gradient-5" x1="162.59" y1="414.77" x2="267.93" y2="266.79" xlink:href="#linear-gradient-2"/><linearGradient id="linear-gradient-6" x1="91.82" y1="393.91" x2="399.63" y2="215.09" xlink:href="#linear-gradient-2"/><linearGradient id="linear-gradient-7" x1="199.03" y1="70.6" x2="250.28" y2="142.76" xlink:href="#linear-gradient-2"/><linearGradient id="linear-gradient-8" x1="213.96" y1="46.69" x2="250.89" y2="137.63" gradientUnits="userSpaceOnUse"><stop offset="0" stop-color="#ffdedb"/><stop offset="0.19" stop-color="#ffd0cf"/><stop offset="0.72" stop-color="#ffacb3"/><stop offset="1" stop-color="#ff9fa8"/></linearGradient><linearGradient id="linear-gradient-9" x1="224.21" y1="62.85" x2="310.11" y2="125.15" xlink:href="#linear-gradient-2"/><linearGradient id="linear-gradient-10" x1="336.02" y1="0.1" x2="340.45" y2="137.29" xlink:href="#linear-gradient-2"/><linearGradient id="linear-gradient-11" x1="342.38" y1="26.67" x2="151.12" y2="351.05" gradientUnits="userSpaceOnUse"><stop offset="0" stop-color="#ffdedb"/><stop offset="0.17" stop-color="#ffc2c5"/><stop offset="0.35" stop-color="#ffafb5"/><stop offset="0.52" stop-color="#ffa3ab"/><stop offset="0.7" stop-color="#ff9fa8"/><stop offset="1" stop-color="#fb8d96"/></linearGradient><linearGradient id="linear-gradient-12" x1="166.75" y1="319.87" x2="228.84" y2="164.65" xlink:href="#linear-gradient-2"/><linearGradient id="linear-gradient-13" x1="87.51" y1="215.5" x2="213.62" y2="327.48" xlink:href="#linear-gradient-2"/><linearGradient id="linear-gradient-14" x1="75.87" y1="333.14" x2="256.58" y2="138.42" gradientUnits="userSpaceOnUse"><stop offset="0" stop-color="#ffdedb"/><stop offset="0.36" stop-color="#ffc2c4"/><stop offset="0.76" stop-color="#ffa8b0"/><stop offset="1" stop-color="#ff9fa8"/></linearGradient><linearGradient id="linear-gradient-15" x1="114.98" y1="69.7" x2="212.2" y2="224.5" xlink:href="#linear-gradient-2"/><linearGradient id="linear-gradient-16" x1="115.05" y1="155.25" x2="279.54" y2="155.25" xlink:href="#linear-gradient-2"/><linearGradient id="linear-gradient-17" x1="123.18" y1="102.41" x2="268.31" y2="122.23" xlink:href="#linear-gradient-2"/></defs><title>Artboard 4</title><g class="cls-1"><g id="Layer_1" data-name="Layer 1"><path class="cls-2" d="M133.8,483c7,11.62,57.75,31.86,137,31,69.36-.76,123.09-21.56,131.84-32.34s26.66-108.55,38.93-167.07c11.88-56.7-128-22.17-176.91-18.8-42.74,2.94-175.54-10.34-164.49,45.73C111.42,398.61,128.49,474.18,133.8,483Z"/><g class="cls-3"><path class="cls-4" d="M310.36,511.33V389.26l-28.27,6.18-2.31,118.31c1.91-.07,3.8-.15,5.67-.25L287.67,400l17-3.73V512Q307.57,511.68,310.36,511.33Z"/><path class="cls-4" d="M265.52,514l-4.33-124.73-34-1.22,3.21,124.48q2.81.24,5.68.45l-3.08-119,22.68.81,4.14,119.21C261.73,514,263.61,514,265.52,514Z"/><path class="cls-4" d="M367.17,499.21l9.68-117-37.34-1.59-5.54,127q2.91-.57,5.72-1.16l5.24-119.94,25.79,1.1L361.34,501C363.34,500.41,365.29,499.81,367.17,499.21Z"/><path class="cls-4" d="M388.78,490.79,406.93,373.2l-5.59-.86L382.63,493.55C384.84,492.63,386.89,491.7,388.78,490.79Z"/><path class="cls-4" d="M153.37,495.76,129.7,390.36l-5.53,1.24L146.9,492.78C148.86,493.77,151,494.77,153.37,495.76Z"/><path class="cls-4" d="M197.29,393.21H161.15l14.13,110c1.9.51,3.88,1,5.9,1.51L167.59,398.87h24.56L202.87,509.1q2.83.47,5.77.9Z"/></g><path class="cls-5" d="M435.88,342.31c-46.87-24-122-38-122-38L101.83,349.86c4.72,23.52,10.23,49.34,15.41,72,10.51.92,24.09.46,33.3.46,0,0,8.1,23.78,19.22,28.84,9.52,4.32,99.07,6.75,158.54-23.92,0,0,52.27,11.18,89,4.52C423.36,405,430,371.65,435.88,342.31Z"/><path class="cls-6" d="M301.16,271c-22,12.24-49.54,39.07-48.14,70.79,2.11,47.65,63.81,86.33,122,76.9,70.56-11.42,101-59.71,93.18-98.84C458.19,269.44,361.21,237.61,301.16,271Z"/><ellipse class="cls-7" cx="353.9" cy="337.38" rx="94.09" ry="66.76"/><path class="cls-8" d="M386.11,150s80.19,23.29,92,83.53c13,65.89-43.89,92.74-43.89,92.74S355.67,210.84,386.11,150Z"/><path class="cls-9" d="M156,401.27s.7,26.9,14.15,33.27,180.53,6.37,251.32-68.67c23.76-25.19,42-57.51,40.21-93.1-1.49-28.95-18.82-58.94-40.84-77.45-11.79-9.92-28.4-20.59-38.58-25.28-3.21-1.48-42.49-21.45-45-18Z"/><path class="cls-10" d="M92.32,374.37s-11,44.94,100.05,37C302.47,403.58,352.56,373.32,364,342,372,320.37,92.32,374.37,92.32,374.37Z"/><path class="cls-11" d="M152.5,204.47C140.31,213.55,74.38,263,88.08,314.2c13.58,50.73,89.08,73.42,165.65,68.66,102.65-6.37,172-56.65,172-121.76,0-52.71-67-88-72.21-90.61C263.06,124.33,164.13,195.79,152.5,204.47Z"/><path class="cls-7" d="M353.55,170.49c-35.93-18.33-73.18-18.11-105.78-10.64,10.2,13.41,19.84,27,28.77,41.44a91.63,91.63,0,0,1,43-11.24c24.21,0,33.46,31.71,56.9,35.44,29.34,4.66,34.74,20.9,35.78,44,.86,19.27-7.64,48.26-23.48,66.32,23.69-20.41,37.07-46.13,37.06-74.72C425.74,208.39,358.74,173.14,353.55,170.49Z"/><path class="cls-12" d="M63.3,331.19s-12.74,28.31-2.13,39.64,56.1,23.83,170.61,0c122.48-25.49,159.29-81.41,142.3-129.55C358.43,197,63.3,331.19,63.3,331.19Z"/><path class="cls-6" d="M115.45,150.66s19.29-19.95,62.77-28.31c39.25-7.55,12.62,47,12.62,47S118.93,162.52,115.45,150.66Z"/><path class="cls-13" d="M277.85,15.21s-12.32,26.91-69.43,59.94c-55.25,32-63.11,66.1-59.45,90.09,3.45,22.65,106.52-13.42,106.52-13.42Z"/><path class="cls-14" d="M276.63,20.09S262,59.94,233.13,81.89s-55.57,49.46-45,82,82-31.17,82-31.17Z"/><path class="cls-15" d="M277.44,8.3s-2.84,8.54-8.13,28.46c-8.32,31.37-8.63,39.11-25.2,61.8-25.3,34.64-18.59,53.61-12.09,63,5.8,8.34,53.56-36.53,53.56-36.53Z"/><path class="cls-16" d="M277.85,15.21S287,47.72,340.1,91.91c46.16,38.38,60.5,54.16,61.5,75.42,1.18,25-20.8,44.19-57.53,48.71-30.69,3.77-58.48-97.94-58.48-97.94S274,54.86,277.85,15.21Z"/><path class="cls-17" d="M337.27,289.42s65.49-34.9,64.41-69.47c-1-33.55-47.41-40.81-47.41-40.81L214.09,304.28Z"/><path class="cls-18" d="M342.93,114.56C302.66,76,279.22,28.9,279.22,28.9c-1.42,26.19,5.66,138,5.66,138L190,263.22l1.84,3.08-7.51-6.62s-58-14.15-96.27,1.42-52.14,39.55-52.14,39.55c17.24,58,204.38,8.35,204.38,8.35l-1.08-1c26.73-7.37,75.2-24,107.94-54C390.36,214.38,392.48,162,342.93,114.56Z"/><path class="cls-19" d="M86.66,225.7c-18.33,26.53-15.18,41.78-12.74,48.14,12.31,32.17,61,35.09,120.11,22.28,68.67-14.86,136.08-53.52,144.65-110.06,1.32-8.68,2.34-29.64-9.91-46.72-14.83-20.68-33.41-25.43-38.55-27.8C233.27,162.16,151.55,193.38,86.66,225.7Z"/><path class="cls-20" d="M315.74,125.36h0c11.89,20.1,17.39,35.55,13.71,58.86-3.62,23-9,48-58,83.39,35.41-19.8,62-47.41,67.21-81.55,1.32-8.68,2.34-29.64-9.91-46.72A72.77,72.77,0,0,0,315.74,125.36Z"/><path class="cls-21" d="M35.94,300.65s-.16,26.3,26.7,36.92c55.46,21.92,201.2-8,274.63-48.15,0,0-15.65-4.54-127.07,18.87C132.68,324.58,66.36,322.62,35.94,300.65Z"/><path class="cls-22" d="M87.39,210s-10.17,30.79,17.2,38.34c0,0-14.17,34.33,43.88,33.73,65.65-.69,143.74-49.63,152.46-95.09,6.6-34.45-28.79-33.5-28.79-33.5S247.27,224.29,87.39,210Z"/><path class="cls-20" d="M272.14,153.5a33.8,33.8,0,0,1-2.51,5.05c11.15,6.2,19.07,18.27,19.09,31.81,0,18.44-17.84,50-99.59,85.82C242.85,261.76,294,223.27,300.93,187,307.53,152.55,272.14,153.5,272.14,153.5Z"/><path class="cls-23" d="M70,209.78s7.2,31,34.57,38.58c0,0,81.83,12.45,157.64-43.42,13.37-9.86,31.14-24.07,38.22-43.89,3.78-20.77-14.16-26.43-14.16-26.43S229.9,224.05,70,209.78Z"/><path class="cls-24" d="M115.45,150.66s-3.54,21.24,10.5,37.52,86.25,16.29,122.59-14.39,30.68-62.3,30.68-62.3S204.65,173.79,115.45,150.66Z"/><path class="cls-20" d="M279.22,111.49a169.58,169.58,0,0,1-18.39,12.75c.32,22.67-31.56,55.45-117.28,69.28a76.14,76.14,0,0,1-10.5-.35c23.23,10.88,83.37,7.73,115.49-19.38C284.88,143.11,279.22,111.49,279.22,111.49Z"/><path class="cls-25" d="M70,209.78s45.43,28.2,123.3,4.6c87.25-26.44,102.48-71.17,99.3-107C290.3,81.25,280.63,30.67,278.15,2c0,0-6.13,47-4.24,84.6,1.87,37.4-3.44,49.77-13.16,63.47s-75,56.87-134.8,38.11A413,413,0,0,0,70,209.78Z"/><path class="cls-26" d="M77.81,213.67S98,234.43,160,225.93s101.53-44.47,106.13-49.07c0,0-41.48,33.84-108.67,42.83C107.19,226.41,77.81,213.67,77.81,213.67Z"/><path class="cls-27" d="M371.48,291.6c-18.49,23-46.6,42.31-80.63,55.76C216,376.94,124,384.38,124,384.38l0,0c26-.2,61.2-3.88,107.77-13.57C312.6,354,356.1,323.94,371.48,291.6Z"/><path class="cls-28" d="M348.92,252.36c36.17-34.41,41.87-78.07,10.27-119.71C371.34,157.59,386.94,201.45,348.92,252.36Z"/><path class="cls-29" d="M179.11,159c23.54-3,49.44-14,60.76-23.4-28.16,13.48-69,26-114.26,17.3C132.66,157.24,148.66,162.91,179.11,159Z"/><path class="cls-29" d="M238.31,77.63q-2.51,2.22-5.18,4.26c-22.67,17.24-44,37.91-47,61.74C197.6,120.06,210.6,105.09,238.31,77.63Z"/><path class="cls-26" d="M213.63,436.83c57.75-2.06,157.34-17.39,207.88-71,1.82-2.08,3.76-4.08,5.58-6.18C363.54,413.93,275.86,428.88,213.63,436.83Z"/><path class="cls-26" d="M166.93,315.65c-54.86,7-100.53,3.26-126.24-11.92C51.13,313.82,83.64,334.23,166.93,315.65Z"/></g></g></svg>