<svg id="Layer_1" data-name="Layer 1" xmlns="http://www.w3.org/2000/svg" xmlns:xlink="http://www.w3.org/1999/xlink" viewBox="0 0 516 516"><defs><style>.cls-1{fill:url(#linear-gradient);}.cls-2{fill:#d19060;}.cls-2,.cls-9{opacity:0.5;}.cls-3{fill:#fff5e6;}.cls-4{fill:url(#linear-gradient-2);}.cls-5{fill:url(#linear-gradient-3);}.cls-6,.cls-8{opacity:0.2;}.cls-7,.cls-9{fill:#fff;}.cls-8{fill:#532b6a;}</style><linearGradient id="linear-gradient" x1="356.23" y1="526.44" x2="356.23" y2="341.2" gradientUnits="userSpaceOnUse"><stop offset="0" stop-color="#f3cf8f"/><stop offset="0.3" stop-color="#f3c585"/><stop offset="0.8" stop-color="#f2aa6c"/><stop offset="1" stop-color="#f29d60"/></linearGradient><linearGradient id="linear-gradient-2" x1="94.44" y1="147.31" x2="283.33" y2="40.06" gradientUnits="userSpaceOnUse"><stop offset="0.55" stop-color="#fe3a44"/><stop offset="0.96" stop-color="#e72a34"/><stop offset="1" stop-color="#e52832"/></linearGradient><linearGradient id="linear-gradient-3" x1="193.62" y1="140.36" x2="316.42" y2="354.55" gradientUnits="userSpaceOnUse"><stop offset="0" stop-color="#fe3a44"/><stop offset="0.27" stop-color="#fcdada"/><stop offset="0.4" stop-color="#fce6da"/><stop offset="0.51" stop-color="#fce6da"/><stop offset="0.62" stop-color="#fcdada"/><stop offset="0.73" stop-color="#bcd3dd"/><stop offset="1" stop-color="#13a2e4"/></linearGradient></defs><title>Artboard 13</title><path class="cls-1" d="M290.08,344.51,388.49,514s21.87,0,33.9-19.68L310.85,311.71Z"/><path class="cls-2" d="M372.77,413.08,310.85,311.71l-20.77,32.8,49,84.39A58.25,58.25,0,0,1,372.77,413.08Z"/><path class="cls-3" d="M229.61,454.59c-6-2.25-79.58-120.9-128.55-232.61S71,49.05,115.34,16.92,244.91.08,316.83,107.21s125.49,207.1,127,214.75-52,49-97.94,77.54C308.43,422.82,237.77,457.65,229.61,454.59Z"/><path class="cls-4" d="M328.66,130.32c.76-.69,1.46-1.34,2.17-2q-6.87-10.48-14-21.11c-33.77-50.3-70.47-80.36-104.49-94.76l-2.1.42.2.59-1-.44c.26,0,.52-.11.79-.15l-.29-.81-1.1.71-2.33-.95a3.45,3.45,0,0,1,1.09-1.27A135,135,0,0,0,188.76,4.8a23.25,23.25,0,0,1-3,.07,5.61,5.61,0,0,0,.6-.59c-28-5.68-52.89-.47-71,12.64C71,49.05,52.09,110.27,101.06,222c3.83,8.74,7.82,17.53,11.91,26.3,1.8.75,3.53,1.62,4.36,3.13.53-5.16,10.63,0,12-7.77,1.52.09-.05,1.77,1.07,2.28.08-2.37,1.25-3.64,4.31-4.65l0,.6c7-5.25,11.16-5.74,20-10.13l-1.82-1.45a7,7,0,0,1,3.79-.67c.16-4.17-5,3.13-5.24-1.21,4.81,2.24,12.39-8.2,16.77-4.93,2.74-1.74-2.2-1.65.54-3.38l1.48.7-.29-2a3.75,3.75,0,0,1,4.5.93c-.51.16-1,1.07-1.46,1.46,3-.11,5.78-4.05,7-4.66l-2.82.88c6.73-5.88,16.81-10.13,22.54-17.06l-1.11-.55c4.5-5.11,5-1.81,10.64-6.35l-.09.35a8.22,8.22,0,0,1,3.74-4c-.89,2,4.15.24,2.86,2.65,4.91-5.5,2.11-3.23,4-9l1.83.92c.53-2.18.21-3,3-5.22-1.73,2.81,3.34,1.07,1.56,4.47,8.4-.66,7.51-9.1,13.36-6.12.45-5.91-7,1.08-5.83-.8-2.21-.51.56-4.57,2.83-5.37,2.12-1.15,6.69,3.15,11.81,0-.53.29-.37.62-.9.91,2.57-.1,2.94-3.7,6.34-3.41-.17-3.31,3.17-1.71,1.64-5.13l-4.3,3.58c2.18-2.45,2.48-7.7,8-8.53a8.67,8.67,0,0,1-1.4,3.5c1.86.17,2.13-2.12,4.05-2,1.52,3.43-5.37,4.13-6.79,8.3,2.19.51,4.07-5.57,4.69-1.24-.54-5.65,5.43-2.49,6.95-7.94l.9,2.06c.38-.63,1-2.22,2.05-2.78l-.38,3.59c1.59-3.81,6.58-1.38,8.63-4.15-5.68,3.43-2.65-1.56-5.89-1.54,5.46-6.64,7,2.36,14.06-2.69-1.24.71-4.27.81-3.22-.9,1.73-.48,4.15-.91,5.67-.44,5-3.45-2-1.51-.42-4,3.16,1.31,2-2.46,3.9-4.55l1.15,1.95c6.72-2.22-.78-5,5.5-6.61l-.71,4L300.3,141l.71,2.57c2.11-3.42,3.31-3.54,6.67-4.64a2.63,2.63,0,0,1-1.06-2.47,3.31,3.31,0,0,1,.57-1.54,4.56,4.56,0,0,1,1.7-1.51c3.34-.36-.34,2.68,5.1-.8a5.61,5.61,0,0,1-1,2.72,3.75,3.75,0,0,1-3.54,1.15c.2.74-.13,1.72.06,2.45a4.17,4.17,0,0,0,1,0,2.44,2.44,0,0,0,.55-.14l.78-.34a24.78,24.78,0,0,0,3-1.67c1.92-1.23,3.55-2.5,4.7-3.17a10.33,10.33,0,0,1-2.89,1c2.32-2.52,4.32-4.86,6-7,2.15-.25,1.86.7,1.41,1.73,1.56-1.17,1.66-2.44,3.9-3.95C329.41,126.68,331.85,127.47,328.66,130.32Z"/><path class="cls-5" d="M229.61,454.59c-6-2.25-79.58-120.9-128.55-232.61S71,49.05,115.34,16.92,244.91.08,316.83,107.21s125.49,207.1,127,214.75-52,49-97.94,77.54C308.43,422.82,237.77,457.65,229.61,454.59Z"/><g class="cls-6"><path class="cls-7" d="M209.86,48.86c39.92,65.32,80.74,130.1,120.55,195.5q22,36.18,44,72.44,18.74-12,37.32-24.18C393.85,258.17,355.18,189.37,307.63,117,270.75,60.92,230,32.13,194.34,23.14Q202,36,209.86,48.86Z"/><path class="cls-7" d="M233,151.83C206.2,108.6,178.81,65.64,153.24,21.64a69.61,69.61,0,0,0-27.58,12.1A98.82,98.82,0,0,0,111.08,46.9q12.24,26.67,25,53.1C180.91,193,230,283.77,278.64,374.76q33.54-19.11,66.38-39.5C307.93,274,270.8,212.7,233,151.83Z"/><path class="cls-7" d="M239.5,366.76c-50.31-94-100.63-188.11-145.86-284.66-9.23,32.59-4.73,77.45,22.28,138.44C146.28,289.09,195.15,368,219.14,406.86c5.18-2.65,5.22-3.08,10.37-5.79q11.06-5.81,22-11.8Q245.51,378,239.5,366.76Z"/></g><path class="cls-8" d="M239.67,27.17A447.38,447.38,0,0,1,277.1,74.74C327,148.6,379.27,236.05,417.93,348.7c16-12.93,26.61-23.28,25.92-26.74-1.53-7.65-55.09-107.63-127-214.75C292,70.15,265.49,44.09,239.67,27.17Z"/><path class="cls-8" d="M362.68,336.78c-16,23.56-34.15,42.66-60.42,54.53-24,10.86-49.15,12.81-75.06,8.47-14.32-2.4-28.63-7.5-42-14,23.46,40.37,41.56,67.71,44.41,68.78,8.16,3.06,78.82-31.77,116.3-55.09,45.91-28.57,99.47-69.89,97.94-77.54-1-4.74-21.89-45-54.81-100.37C392.53,261.63,386.59,301.54,362.68,336.78Z"/><path class="cls-9" d="M125.66,33.74A98.82,98.82,0,0,0,111.08,46.9q12.24,26.67,25,53.1c37.16,77.06,77.23,152.63,117.57,228.05C230.44,275.19,119.3,49.29,119.3,49.29l33.94-27.65A69.61,69.61,0,0,0,125.66,33.74Z"/><path class="cls-9" d="M93.64,82.1c-9.23,32.59-4.73,77.45,22.28,138.44,23.29,52.6,57.48,111.28,83,153.3-18.15-37.66-81.69-156.19-93.24-197.77-9.77-35.18-11.2-61.72-6.88-83.1C97.06,89.35,95.34,85.73,93.64,82.1Z"/></svg>