<svg id="Layer_1" data-name="Layer 1" xmlns="http://www.w3.org/2000/svg" xmlns:xlink="http://www.w3.org/1999/xlink" viewBox="0 0 516 516"><defs><style>.cls-1{fill:url(#linear-gradient);}.cls-2{fill:#2b446a;}.cls-3{fill:url(#linear-gradient-2);}.cls-13,.cls-4{opacity:0.5;}.cls-5{fill:#a3fffa;}.cls-19,.cls-5{opacity:0.7;}.cls-6{fill:#56a3d6;}.cls-7{fill:#a1cbe3;}.cls-8{fill:url(#linear-gradient-3);}.cls-9{fill:url(#linear-gradient-4);}.cls-10{fill:url(#linear-gradient-5);}.cls-11{fill:url(#linear-gradient-6);}.cls-12{fill:#fe3a44;}.cls-13{fill:url(#linear-gradient-7);}.cls-14{fill:#f4cfcd;}.cls-15{fill:url(#linear-gradient-8);}.cls-16{fill:url(#linear-gradient-9);}.cls-17{fill:url(#linear-gradient-10);}.cls-18,.cls-19{fill:#f7eae8;}.cls-20{fill:#ffeeed;}</style><linearGradient id="linear-gradient" x1="260.71" y1="204.45" x2="514" y2="204.45" gradientUnits="userSpaceOnUse"><stop offset="0" stop-color="#e9c996"/><stop offset="0.28" stop-color="#e9c996"/><stop offset="0.55" stop-color="#e3bf8e"/><stop offset="1" stop-color="#d5a678"/></linearGradient><linearGradient id="linear-gradient-2" x1="168.45" y1="81.39" x2="481.07" y2="259.49" gradientUnits="userSpaceOnUse"><stop offset="0" stop-color="#3977a9"/><stop offset="1" stop-color="#2b446a"/></linearGradient><linearGradient id="linear-gradient-3" x1="233.99" y1="462.88" x2="300.98" y2="257.79" gradientUnits="userSpaceOnUse"><stop offset="0" stop-color="#e9c996"/><stop offset="0.34" stop-color="#e9c996"/><stop offset="0.59" stop-color="#e3bf8e"/><stop offset="1" stop-color="#d5a678"/></linearGradient><linearGradient id="linear-gradient-4" x1="251.48" y1="295.37" x2="402.07" y2="344.83" gradientUnits="userSpaceOnUse"><stop offset="0" stop-color="#f4eddf"/><stop offset="1" stop-color="#fbe8cf"/></linearGradient><linearGradient id="linear-gradient-5" x1="168.15" y1="245.16" x2="458.43" y2="398.29" gradientUnits="userSpaceOnUse"><stop offset="0" stop-color="#fe3a44"/><stop offset="0.21" stop-color="#f6373f"/><stop offset="0.53" stop-color="#e02f33"/><stop offset="0.93" stop-color="#bc221f"/><stop offset="1" stop-color="#b51f1b"/></linearGradient><linearGradient id="linear-gradient-6" x1="236.21" y1="271.6" x2="484.99" y2="375.69" gradientUnits="userSpaceOnUse"><stop offset="0" stop-color="#3cb2da"/><stop offset="0.43" stop-color="#3b9bc7"/><stop offset="1" stop-color="#3977a9"/></linearGradient><linearGradient id="linear-gradient-7" x1="97.33" y1="266.23" x2="336.6" y2="337.95" gradientUnits="userSpaceOnUse"><stop offset="0.04" stop-color="#fff5e6"/><stop offset="1" stop-color="#fff5e6" stop-opacity="0"/></linearGradient><linearGradient id="linear-gradient-8" x1="133.55" y1="341.17" x2="119.83" y2="229.02" xlink:href="#linear-gradient-3"/><linearGradient id="linear-gradient-9" x1="-47.31" y1="16.37" x2="164.81" y2="215.08" gradientUnits="userSpaceOnUse"><stop offset="0" stop-color="#ffdedb"/><stop offset="0.19" stop-color="#ffcbcc"/><stop offset="0.49" stop-color="#ffb3b8"/><stop offset="0.77" stop-color="#ffa4ac"/><stop offset="1" stop-color="#ff9fa8"/></linearGradient><linearGradient id="linear-gradient-10" x1="14.89" y1="77.1" x2="208.61" y2="258.57" xlink:href="#linear-gradient-9"/></defs><title>Artboard 1</title><path class="cls-1" d="M294.25,334.55c-17.84-11.14-40.4-199.81-31.55-213.39,12.08-18.52,157.35-47.72,200.55-48.82,6.57-.16,17.42,9.7,18.27,10.44C495.44,94.85,524,288.55,510.42,303,495.58,318.78,309.09,343.83,294.25,334.55Z"/><path class="cls-2" d="M279.52,321.41C261.68,310.26,239.12,121.59,248,108c13.92-21.34,208.78-43.64,215.25-38C477.13,82,509.3,275.41,495.69,289.87,480.85,305.64,294.36,330.69,279.52,321.41Z"/><path class="cls-3" d="M257.44,118.56c3.81-11.84,189.54-46.11,198.94-35s40.12,170.76,32.44,195.52-191.64,39.44-202.35,31.59C273.66,301.27,249.76,142.46,257.44,118.56Z"/><g class="cls-4"><path class="cls-5" d="M403.84,73q-5.88.64-12,1.39L250,185.07q.39,3.66.81,7.38Z"/><path class="cls-6" d="M470.05,85c-.72-2.27-1.42-4.3-2.1-6.12-24.58,15.35-54.81,34.27-84.87,53.2-40.42,25.44-72.62,45.91-95.72,60.84-16.63,10.74-27.1,17.63-33.7,22.17q.48,3.51,1,7C281,203.7,381.24,140.46,470.05,85Z"/><path class="cls-6" d="M247.78,161.33c22.34-18.26,62.34-49.7,102.92-81.27-4.32.66-8.63,1.34-12.9,2C331.94,86.67,326,91.32,320,96c-36.45,28.49-58.93,46.38-72.85,57.7C247.37,156.16,247.56,158.72,247.78,161.33Z"/><path class="cls-5" d="M279.46,308.81l205.73-157c-.42-2.34-.84-4.67-1.28-7L282,298.94l-15.82-35.6c59.17-42,151.64-107.57,211.39-149.57q-.76-3.4-1.53-6.62C417,148.57,324.81,213.93,260.6,259.54c.74,4.1,1.5,8.09,2.27,11.94Z"/><path class="cls-5" d="M497.84,244.62q-.27-3.57-.62-7.31L388.09,315c4.58-.64,9.17-1.31,13.72-2Z"/><path class="cls-6" d="M490.37,182.9c-.36-2.38-.74-4.78-1.12-7.16L302.9,323.32c3.33-.1,6.92-.25,10.76-.47Z"/></g><path class="cls-7" d="M267.27,120.5c5.56-.76,8.44,43.47,3.56,43.79C262.73,164.83,260.76,121.39,267.27,120.5Z"/><path class="cls-7" d="M271.57,177c5,.33,6.12,16.57,1.12,16.47C267.32,193.39,265.89,176.65,271.57,177Z"/><path class="cls-8" d="M124.37,343.43c-2.54-11.19,186.83-131.94,245.18-153.12,8.34-3,21.79.92,23.22,1.77,21,12.46,79,186.09-44.82,245.46C215.85,500.89,133.64,384.42,124.37,343.43Z"/><path class="cls-9" d="M107,319.55C107,306.43,359.31,185,372.29,187.81S454,359.84,329,421.54C197.63,486.38,107,346.46,107,319.55Z"/><path class="cls-10" d="M372.29,187.81c-2.14-.46-10.77,2.45-23.7,7.7,18,59.11,41,170.62-52,202.14-91.41,31-148-54.4-166.89-95C115.57,311,107,317.13,107,319.55c0,26.91,88.39,170,225.9,107C461.34,367.73,385.28,190.59,372.29,187.81Z"/><path class="cls-11" d="M269.21,328.06c-37.51,11.1-65.77-29.88-81.46-56.83-13.35,6.85-25.87,13.45-36.89,19.46C169.6,335.42,225,404.82,295.86,375c62.61-26.33,46.49-123,33.53-171.39-8.94,3.89-18.89,8.35-29.49,13.21C305.56,252.48,310,316,269.21,328.06Z"/><path class="cls-12" d="M262.26,299.75c17.15-6.09,21.9-41.83,12.86-71.41-21.69,10.22-44.73,21.4-66.57,32.35C224.78,290.87,245.66,305.64,262.26,299.75Z"/><path class="cls-13" d="M118.58,321.9c-.06,9.21,65.17,137.71,175.06,103.6s51.65-205.38,43.15-209.6S118.65,312.69,118.58,321.9Z"/><path class="cls-14" d="M119,318c5.38-5,39.2,51.91,33,53.07C143.36,372.73,113,323.6,119,318Z"/><path class="cls-14" d="M160.59,380.37c4.78-4.62,22,13,17,17.18S155.67,385.12,160.59,380.37Z"/><path class="cls-15" d="M181,165c14.74-36.89,20.87-55.34,19.06-69.07-.71-5.38-6.1-11.52-11.21-10.13-12.46,3.4-34.51,29.94-55,39.62-27.43-30-43.86-56.08-49-50.92-4.07,4.07-5.31,37.86-4.57,78.36C45.56,171.11,4.86,181.21,9.92,193.5c2.51,6.11,35.23,17.12,68.91,26,2,31.69-.5,48.29,1.58,63.68,1.81,13.37,9.81,17.35,11.57,17.35,9,0,34.45-27.1,57-68,38.56,7.08,72,10.3,76.84,4.31C229.75,232.05,207.94,198.33,181,165Z"/><path class="cls-16" d="M164.06,154.42c17.4-37.07,29.28-68.45,25.46-73.31-1.25-1.59-30.25,10.69-65.08,27.14C97,78.26,72.21,55.54,67.05,60.7c-4.06,4.07-5.3,37.86-4.56,78.36C27.77,157.34.05,174.17,2.11,179.46c2.39,6.15,29.33,15.7,63,24.56,2.84,45.8,7.59,85.21,13.08,86.77,8.14,2.33,30.45-31.14,53.05-72,38.55,7.08,72,10.3,76.84,4.32C212,218.28,191,187.77,164.06,154.42Z"/><path class="cls-17" d="M152.55,156.1C169.94,119,183.9,97.33,180.08,92.47c-1.25-1.6-21.58,10.62-56.42,27.08-27.42-30-47.19-54.81-52.35-49.65-4.06,4.07-2.09,33.52-1.35,74-34.72,18.28-59.83,29.91-57.77,35.2,2.39,6.15,24.1,10.09,57.77,18.95,3.16,37,5.79,78.77,11.28,80.34,8.14,2.32,22.54-28.16,45.13-69.05,38.56,7.07,68.25,15.46,73.11,9.47C203.37,214.05,179.48,189.46,152.55,156.1Z"/><circle class="cls-18" cx="41.37" cy="175.32" r="4.79"/><circle class="cls-18" cx="71.89" cy="160.8" r="4.6"/><circle class="cls-18" cx="107.52" cy="144.48" r="4.21"/><circle class="cls-18" cx="104.49" cy="176.61" r="4.73"/><circle class="cls-18" cx="75.52" cy="192.06" r="5.07"/><circle class="cls-19" cx="134.05" cy="160.9" r="4.55"/><circle class="cls-19" cx="106.44" cy="210.08" r="4.71"/><circle class="cls-19" cx="93.59" cy="251.6" r="4.71"/><circle class="cls-19" cx="80.07" cy="229.13" r="5.07"/><circle class="cls-19" cx="137.42" cy="196.27" r="4.87"/><circle class="cls-19" cx="172.79" cy="182.38" r="4.53"/><circle class="cls-19" cx="164.83" cy="111.92" r="5.07"/><circle class="cls-19" cx="173.26" cy="208.48" r="5.07"/><circle class="cls-18" cx="137.84" cy="127.22" r="4.3"/><circle class="cls-18" cx="86.09" cy="124.86" r="3.98"/><circle class="cls-18" cx="84.79" cy="93.53" r="4.51"/><circle class="cls-18" cx="113.42" cy="112.48" r="4.42"/><path class="cls-20" d="M71.08,78.26c4.9-1.12,6.25,55.39.67,55.41C65.73,133.69,65.61,79.5,71.08,78.26Z"/><path class="cls-20" d="M42.37,160.36c-2.27-4,22.31-16.64,24.24-12.56S44.69,164.43,42.37,160.36Z"/></svg>