<?xml version="1.0" standalone="no"?>
<svg class="icon" viewBox="0 0 1024 1024" version="1.1" xmlns="http://www.w3.org/2000/svg" width="32" height="32" xmlns:xlink="http://www.w3.org/1999/xlink">
  <path d="M512 0q18.00192 0 30.33088 12.32896l150.67136 150.99904q12.67712 12.67712 12.67712 30.33088t-12.4928 30.16704-30.16704 12.4928-30.33088-12.67712l-78.00832-78.00832 0 323.66592 323.66592 0-78.00832-78.00832q-12.67712-12.67712-12.67712-30.33088t12.4928-30.16704 30.16704-12.4928 30.33088 12.67712l150.99904 150.67136q12.32896 12.32896 12.32896 30.33088t-12.32896 30.0032l-150.99904 150.99904q-12.67712 12.67712-30.33088 12.67712t-30.16704-12.4928-12.4928-30.16704 12.67712-30.33088l78.00832-78.00832-323.66592 0 0 323.66592 78.00832-78.00832q12.67712-12.67712 30.33088-12.67712t30.16704 12.4928 12.4928 30.16704-12.67712 30.33088l-150.67136 150.99904q-12.32896 12.32896-30.33088 12.32896-17.67424 0-30.0032-12.32896l-150.99904-150.99904q-12.67712-12.67712-12.67712-30.33088t12.4928-30.16704 30.16704-12.4928 30.33088 12.67712l78.00832 78.00832 0-323.66592-323.66592 0 78.00832 78.00832q12.67712 12.67712 12.67712 30.33088t-12.4928 30.16704-30.16704 12.4928-30.33088-12.67712l-150.99904-150.67136q-12.32896-12.32896-12.32896-30.33088t12.32896-30.33088l150.99904-150.67136q12.67712-12.67712 30.33088-12.67712t30.16704 12.4928 12.4928 30.16704-12.67712 30.33088l-78.00832 78.00832 323.66592 0 0-323.66592-78.00832 78.00832q-12.67712 12.67712-30.33088 12.67712t-30.16704-12.4928-12.4928-30.16704 12.67712-30.33088l150.67136-150.99904q12.32896-12.32896 30.33088-12.32896z"
    fill="currentColor" />
</svg>
