<?xml version="1.0" standalone="no"?>
<svg class="icon" viewBox="0 0 1024 1024" version="1.1" xmlns="http://www.w3.org/2000/svg" width="32" height="32" xmlns:xlink="http://www.w3.org/1999/xlink">
  <path d="M1001.30379 5.843015a62.08203 62.08203 0 0 0-73.037683 16.06829c-32.13658 30.675827-254.171136 333.051834-349.850501 471.823431-10.955652 21.180928-18.259421 37.249218 58.430146 95.679365 65.003538 49.665624 90.566727 41.631479 115.399539 11.686029 40.170726-56.239016 198.662497-379.065574 257.092644-501.768881 9.494899-20.450551 27.023943-73.037683-9.494899-93.488234zM687.97213 669.755552a41.631479 41.631479 0 0 1 18.259421 53.317509 39.440349 39.440349 0 0 1-54.778262 0L518.524706 627.393696a41.631479 41.631479 0 0 1-18.259421-53.317509 39.440349 39.440349 0 0 1 54.778262 0z m-219.113048-34.327711L658.757057 770.547554c67.925045 208.157396-416.314792 263.666035-387.099719 251.980006a233.720585 233.720585 0 0 0 101.522379-204.505512 241.75473 241.75473 0 0 1 93.488234-182.594207zM17.486202 506.881519A27.754319 27.754319 0 0 1 1.417911 472.553808a24.102435 24.102435 0 0 1 31.406204-16.06829A136.580467 136.580467 0 0 1 128.503479 635.427841a276.082441 276.082441 0 0 0-20.450551 94.948988c0 10.955652 10.955652 17.529044 41.63148 24.102435 79.611074 15.337913 73.037683 83.262958 9.494898 167.986671-33.597334 45.283363-29.94545 50.396001 43.82261 43.092233a25.563189 25.563189 0 0 1 26.293566 24.832812 26.293566 26.293566 0 0 1-22.641682 29.215073c-111.747655 10.225276-151.188004-43.092233-85.454089-132.198206 46.744117-59.160523 47.474494-73.037683 19.720175-78.880698-48.935248-9.494899-73.037683-29.94545-81.071828-68.655421a281.925456 281.925456 0 0 1 22.641681-122.703308c15.337913-51.126378-2.921507-85.454089-65.003537-110.286901z"
    fill="currentColor" />
</svg>
